<svg width="64" height="64" xmlns="http://www.w3.org/2000/svg"><g fill="none" fill-rule="evenodd"><rect fill="#000" width="64" height="64" rx="5"/><path d="M7.298 25.797l12.214-5.081v-3.18l-12.214-5.07v3.813l7.423 2.858-7.423 2.868v3.792zm25.593 3.953v-1.096H21.633v1.096H32.89z" fill="#00FF34" fill-rule="nonzero"/><path d="M14.377 53.269c1.526 0 2.79-.22 3.792-.661 1.003-.44 1.784-1.087 2.342-1.94a4.993 4.993 0 0 0 .838-2.792c0-.86-.21-1.636-.628-2.331-.42-.695-1.089-1.277-2.01-1.746-.92-.469-2.443-.932-4.57-1.39-.86-.18-1.404-.373-1.633-.58-.236-.201-.354-.427-.354-.678 0-.343.143-.635.43-.875.286-.24.712-.36 1.278-.36.687 0 1.226.161 1.616.483.39.323.647.838.768 1.547l4.587-.268c-.2-1.633-.829-2.824-1.885-3.572-1.056-.748-2.59-1.123-4.603-1.123-1.64 0-2.93.206-3.872.618-.942.412-1.648.978-2.117 1.697-.469.72-.703 1.485-.703 2.294 0 1.232.458 2.245 1.375 3.04.91.795 2.431 1.432 4.565 1.912 1.304.286 2.134.59 2.492.913.358.322.537.688.537 1.096 0 .43-.188.807-.564 1.133-.375.326-.91.489-1.605.489-.931 0-1.648-.319-2.149-.956-.308-.394-.512-.967-.612-1.719l-4.63.29c.136 1.59.72 2.9 1.75 3.932 1.032 1.03 2.887 1.547 5.565 1.547zm16.988 0c1.525 0 2.79-.22 3.792-.661 1.003-.44 1.783-1.087 2.342-1.94a4.993 4.993 0 0 0 .838-2.792c0-.86-.21-1.636-.629-2.331-.419-.695-1.088-1.277-2.008-1.746-.92-.469-2.444-.932-4.571-1.39-.86-.18-1.404-.373-1.633-.58-.236-.201-.355-.427-.355-.678 0-.343.144-.635.43-.875.287-.24.713-.36 1.278-.36.688 0 1.227.161 1.617.483.39.323.646.838.768 1.547l4.587-.268c-.2-1.633-.829-2.824-1.885-3.572-1.056-.748-2.59-1.123-4.603-1.123-1.64 0-2.931.206-3.873.618-.941.412-1.647.978-2.116 1.697-.469.72-.704 1.485-.704 2.294 0 1.232.459 2.245 1.375 3.04.91.795 2.432 1.432 4.566 1.912 1.303.286 2.134.59 2.492.913.358.322.537.688.537 1.096 0 .43-.188.807-.564 1.133-.376.326-.911.489-1.606.489-.93 0-1.647-.319-2.148-.956-.308-.394-.512-.967-.613-1.719l-4.63.29c.137 1.59.72 2.9 1.752 3.932 1.03 1.03 2.886 1.547 5.564 1.547zM46.774 53v-6.37h5.317V53h4.888V37.252H52.09v5.51h-5.317v-5.51h-4.867V53h4.867z" fill="#FFF" fill-rule="nonzero"/></g></svg>
