<svg fill="none" height="64" viewBox="0 0 64 64" width="64" xmlns="http://www.w3.org/2000/svg" xmlns:xlink="http://www.w3.org/1999/xlink"><clipPath id="a"><path d="m0 0h64v64h-64z"/></clipPath><g clip-path="url(#a)"><rect fill="#224464" height="64" rx="5" width="64"/><g fill="#fff"><path d="m25.208 26.456h-5.328v13.68h-3.552v-13.68h-5.328v-3.12h14.208z"/><path d="m38.3658 39.416c-.528.368-1.224.632-2.088.792-.864.176-1.752.264-2.664.264-1.072 0-2.104-.16-3.096-.48-.976-.32-1.848-.832-2.616-1.536-.752-.704-1.352-1.608-1.8-2.712s-.672-2.44-.672-4.008c0-1.632.256-3 .768-4.104.512-1.12 1.168-2.016 1.968-2.688.8-.688 1.688-1.184 2.664-1.488s1.936-.456 2.88-.456c1.04 0 1.912.064 2.616.192.72.128 1.312.28 1.776.456l-.696 2.976c-.4-.176-.872-.304-1.416-.384-.528-.08-1.2-.12-2.016-.12-.72 0-1.376.12-1.968.36-.576.224-1.072.568-1.488 1.032s-.744 1.048-.984 1.752c-.224.704-.336 1.528-.336 2.472 0 .832.104 1.592.312 2.28s.52 1.28.936 1.776.944.88 1.584 1.152 1.384.408 2.232.408c.784 0 1.44-.072 1.968-.216.544-.144 1.024-.328 1.44-.552z"/><path d="m40.6079 23.504c.72-.128 1.52-.224 2.4-.288.88-.08 1.76-.12 2.64-.12.896 0 1.8.072 2.712.216.912.128 1.728.4 2.448.816.736.4 1.336.968 1.8 1.704.464.72.696 1.68.696 2.88 0 1.056-.2 1.96-.6 2.712-.4.736-.936 1.336-1.608 1.8-.656.464-1.408.808-2.256 1.032-.848.208-1.72.312-2.616.312-.08 0-.216 0-.408 0s-.4 0-.624 0c-.208-.016-.408-.032-.6-.048s-.336-.032-.432-.048v5.664h-3.552zm5.28 2.712c-.336 0-.664.008-.984.024-.304.016-.552.048-.744.096v4.992c.064.016.168.032.312.048s.296.032.456.048c.16 0 .304.008.432.024h.336c.464 0 .928-.032 1.392-.096s.872-.2 1.224-.408c.368-.208.664-.488.888-.84.224-.368.336-.856.336-1.464 0-.512-.104-.92-.312-1.224-.208-.32-.488-.568-.84-.744-.336-.176-.728-.296-1.176-.36-.432-.064-.872-.096-1.32-.096z"/></g></g></svg>