<svg width="64" height="64" xmlns="http://www.w3.org/2000/svg"><g fill="none" fill-rule="evenodd"><rect fill="#000" width="64" height="64" rx="5"/><path d="M7.298 25.797l12.214-5.081v-3.18l-12.214-5.07v3.813l7.423 2.858-7.423 2.868v3.792zm25.593 3.953v-1.096H21.633v1.096H32.89zM9.668 53v-6.469h2.707v-2.12H4.307v2.12h2.707V53h2.654zm11.69 0v-1.945h-4.582V49.36h4.131V47.61h-4.13v-1.365h4.452V44.41h-7.113V53h7.242zm8.772 0v-2.115h-4.142V44.41h-2.655V53h6.797zm4.266 0v-4.717L37.613 53h2.502v-8.59h-2.502v4.752L34.38 44.41H31.9V53h2.496zm15.265 0v-1.945h-4.582V49.36h4.13V47.61h-4.13v-1.365h4.453V44.41h-7.113V53h7.242zm6.733 0v-6.469H59.1v-2.12h-8.069v2.12h2.707V53h2.655z" fill="#FFF" fill-rule="nonzero"/></g></svg>
