<svg fill="none" height="64" viewBox="0 0 64 64" width="64" xmlns="http://www.w3.org/2000/svg" xmlns:xlink="http://www.w3.org/1999/xlink"><clipPath id="a"><path d="m0 0h64v64h-64z"/></clipPath><g clip-path="url(#a)"><rect fill="#2f6422" height="64" rx="5" width="64"/><g fill="#fff"><path d="m19.008 23.24h3.36v10.776c0 1.088-.16 2.032-.48 2.832-.304.8-.744 1.456-1.32 1.968-.56.512-1.24.896-2.04 1.152-.784.24-1.648.36-2.592.36-2.256 0-3.976-.488-5.16-1.464-1.184-.992-1.776-2.472-1.776-4.44v-11.184h3.552v10.536c0 1.28.28 2.176.84 2.688.56.496 1.392.744 2.496.744 1.056 0 1.84-.264 2.352-.792.512-.544.768-1.424.768-2.64z"/><path d="m25.3851 23.24c.352-.048.752-.088 1.2-.12.464-.032.936-.056 1.416-.072.496-.016.976-.024 1.44-.024.464-.016.88-.024 1.248-.024 1.6 0 2.968.216 4.104.648 1.152.416 2.088 1 2.808 1.752.736.752 1.272 1.648 1.608 2.688s.504 2.176.504 3.408c0 1.12-.168 2.208-.504 3.264-.32 1.056-.848 2-1.584 2.832-.736.816-1.696 1.472-2.88 1.968s-2.64.744-4.368.744c-.272 0-.648-.008-1.128-.024-.464-.016-.952-.04-1.464-.072-.496-.016-.968-.04-1.416-.072-.432-.016-.76-.04-.984-.072zm5.568 2.88c-.368 0-.744.008-1.128.024-.384 0-.68.016-.888.048v10.896c.08.016.2.032.36.048.176 0 .352.008.528.024.192 0 .368.008.528.024h.384c1.024 0 1.872-.16 2.544-.48s1.2-.744 1.584-1.272c.4-.528.68-1.128.84-1.8s.24-1.368.24-2.088c0-.592-.072-1.208-.216-1.848s-.408-1.224-.792-1.752c-.368-.528-.872-.96-1.512-1.296-.64-.352-1.464-.528-2.472-.528z"/><path d="m42.2366 23.408c.72-.128 1.52-.224 2.4-.288.88-.08 1.76-.12 2.64-.12.896 0 1.8.072 2.712.216.912.128 1.728.4 2.448.816.736.4 1.336.968 1.8 1.704.464.72.696 1.68.696 2.88 0 1.056-.2 1.96-.6 2.712-.4.736-.936 1.336-1.608 1.8-.656.464-1.408.808-2.256 1.032-.848.208-1.72.312-2.616.312-.08 0-.216 0-.408 0s-.4 0-.624 0c-.208-.016-.408-.032-.6-.048s-.336-.032-.432-.048v5.664h-3.552zm5.28 2.712c-.336 0-.664.008-.984.024-.304.016-.552.048-.744.096v4.992c.064.016.168.032.312.048s.296.032.456.048c.16 0 .304.008.432.024h.336c.464 0 .928-.032 1.392-.096s.872-.2 1.224-.408c.368-.208.664-.488.888-.84.224-.368.336-.856.336-1.464 0-.512-.104-.92-.312-1.224-.208-.32-.488-.568-.84-.744-.336-.176-.728-.296-1.176-.36-.432-.064-.872-.096-1.32-.096z"/></g></g></svg>