<svg width="64" height="64" xmlns="http://www.w3.org/2000/svg"><g fill="none" fill-rule="evenodd"><rect fill="#FFF" width="64" height="64" rx="5"/><path d="M20.583 28.115c0 .63.07 1.14.191 1.515.155.421.341.83.557 1.225a.729.729 0 0 1 .122.392c0 .17-.104.34-.33.51l-1.097.715a.848.848 0 0 1-.452.153c-.174 0-.348-.085-.523-.238a5.28 5.28 0 0 1-.626-.8c-.174-.29-.348-.613-.54-1.004-1.357 1.566-3.063 2.349-5.116 2.349-1.462 0-2.628-.409-3.481-1.226C8.435 30.89 8 29.8 8 28.438c0-1.447.522-2.621 1.584-3.506 1.061-.885 2.471-1.328 4.264-1.328.592 0 1.2.051 1.845.136.643.085 1.305.222 2.001.375v-1.243c0-1.293-.278-2.195-.818-2.723-.557-.528-1.497-.783-2.837-.783-.609 0-1.236.068-1.88.221-.643.153-1.27.34-1.879.579-.278.119-.487.187-.61.221a1.084 1.084 0 0 1-.278.051c-.243 0-.365-.17-.365-.527v-.834c0-.273.035-.477.122-.596.087-.12.243-.238.487-.358.61-.306 1.34-.561 2.193-.766a10.778 10.778 0 0 1 2.715-.323c2.071 0 3.585.46 4.56 1.379.957.919 1.444 2.315 1.444 4.187v5.515h.035zm-7.066 2.587c.574 0 1.166-.102 1.793-.306a3.886 3.886 0 0 0 1.653-1.09 2.68 2.68 0 0 0 .592-1.09c.104-.408.174-.901.174-1.48v-.715a14.829 14.829 0 0 0-1.601-.289 13.405 13.405 0 0 0-1.636-.102c-1.166 0-2.02.22-2.593.68-.575.46-.853 1.107-.853 1.958 0 .8.209 1.396.644 1.804.417.426 1.027.63 1.827.63zm13.975 1.838c-.313 0-.522-.05-.66-.17-.14-.102-.262-.34-.366-.664l-4.09-13.157c-.105-.34-.157-.562-.157-.68 0-.273.139-.426.417-.426h1.706c.33 0 .557.05.679.17.14.102.243.34.348.664l2.924 11.268 2.715-11.268c.087-.34.191-.562.33-.664.14-.102.383-.17.696-.17h1.393c.33 0 .557.05.696.17.14.102.261.34.33.664l2.75 11.404 3.011-11.404c.105-.34.227-.562.348-.664.14-.102.366-.17.68-.17h1.618c.278 0 .435.136.435.425 0 .085-.017.17-.035.272a2.385 2.385 0 0 1-.122.426l-4.194 13.157c-.104.34-.226.562-.366.664-.139.102-.365.17-.66.17H36.42c-.33 0-.557-.05-.696-.17-.14-.12-.26-.34-.33-.68l-2.698-10.98-2.68 10.962c-.087.34-.192.562-.33.68-.14.12-.384.171-.697.171h-1.497zm22.364.46c-.905 0-1.81-.102-2.68-.307-.87-.204-1.549-.425-2.001-.68-.279-.154-.47-.324-.54-.477a1.179 1.179 0 0 1-.104-.476v-.869c0-.357.139-.527.4-.527.107 0 .212.017.313.05.105.035.261.103.435.171a9.62 9.62 0 0 0 1.915.596c.681.135 1.375.203 2.07.204 1.097 0 1.95-.187 2.542-.562.592-.374.905-.919.905-1.617 0-.476-.157-.868-.47-1.191-.313-.324-.905-.613-1.758-.885l-2.523-.766c-1.27-.392-2.21-.97-2.785-1.736-.574-.75-.87-1.583-.87-2.469 0-.714.156-1.344.47-1.889a4.406 4.406 0 0 1 1.253-1.396 5.574 5.574 0 0 1 1.81-.885c.696-.204 1.427-.289 2.193-.289.382 0 .783.017 1.166.068.4.051.766.12 1.131.187.348.085.679.17.992.273.313.102.557.204.73.306.245.136.419.272.523.426.104.136.157.323.157.561v.8c0 .358-.14.545-.4.545-.14 0-.366-.068-.662-.204-.992-.443-2.106-.664-3.342-.664-.991 0-1.775.153-2.314.476-.54.324-.818.818-.818 1.515 0 .477.174.886.522 1.209.348.323.992.647 1.914.936l2.472.766c1.253.391 2.158.936 2.697 1.634.54.698.801 1.498.801 2.383 0 .732-.157 1.396-.453 1.974a4.602 4.602 0 0 1-1.27 1.498c-.54.426-1.184.732-1.932.953a8.445 8.445 0 0 1-2.489.358z" fill="#252F3E" fill-rule="nonzero"/><path d="M53.012 41.957C47.322 45.904 39.056 48 31.947 48c-9.961 0-18.937-3.46-25.717-9.212-.536-.455-.051-1.072.588-.714 7.333 3.996 16.378 6.417 25.735 6.417 6.312 0 13.248-1.235 19.63-3.77.95-.406 1.763.586.83 1.235zm2.37-2.535c-.727-.877-4.808-.422-6.659-.211-.553.065-.64-.39-.138-.731 3.251-2.145 8.595-1.527 9.218-.813.623.731-.173 5.752-3.217 8.156-.467.374-.916.179-.709-.309.692-1.608 2.231-5.231 1.505-6.092z" fill="#F90" fill-rule="nonzero"/></g></svg>
