<svg width="64" height="64" xmlns="http://www.w3.org/2000/svg"><g fill="none" fill-rule="evenodd"><rect fill="#0089D6" width="64" height="64" rx="5"/><path d="M29.973 49.723a9709.862 9709.862 0 0 0 11.86-2.071l.111-.024-6.1-7.16c-3.355-3.938-6.1-7.175-6.1-7.194 0-.035 6.299-17.152 6.334-17.213.012-.02 4.299 7.283 10.392 17.703L56.92 51.64l.08.137-19.388-.003-19.388-.002 11.749-2.048zM7 47.68c0-.01 2.86-5.002 6.356-11.094L19.71 25.51l7.407-6.25c4.074-3.439 7.418-6.256 7.43-6.26.014-.006-.04.13-.118.3L26.387 30.65l-7.899 17.036-5.744.008C9.584 47.697 7 47.692 7 47.68z" fill="#FFF" fill-rule="nonzero"/></g></svg>
