<svg fill="none" height="64" viewBox="0 0 64 64" width="64" xmlns="http://www.w3.org/2000/svg" xmlns:xlink="http://www.w3.org/1999/xlink"><clipPath id="a"><path d="m0 0h64v64h-64z"/></clipPath><g clip-path="url(#a)"><path d="m0 0h64v64h-64z" fill="#fff"/><g fill="#0080ff"><path d="m31.8491 57.5527v-9.9433c10.5831 0 18.7479-10.3949 14.6655-21.3926-1.5121-4.0677-4.6867-7.3823-8.9206-8.8889-10.8856-3.9167-21.3183 4.2186-21.3183 14.6136h-9.97882c0-16.572 16.17762-29.67892 33.86792-24.25502 7.711 2.41012 13.7583 8.43662 16.1777 16.11972 5.443 17.6263-7.7109 33.7465-24.4934 33.7465z"/><path d="m32 47.6095h-9.9788v-9.7924h9.9788zm-9.9788 7.6835h-7.56v-7.6835h7.56zm-7.56-7.6835h-6.34981v-6.3274h6.34981z"/></g></g></svg>