<svg width="64" height="64" xmlns="http://www.w3.org/2000/svg"><g fill="none" fill-rule="evenodd"><rect fill="#FFF" width="64" height="64" rx="5"/><path d="M41.554 47.956l-6.034 10.49H19.716a3.934 3.934 0 0 1-3.413-1.979L3.52 34.18a3.937 3.937 0 0 1 0-3.912l4.865-8.478 6.004 10.433 9.052 15.733h18.113z" fill="#FBBC05" fill-rule="nonzero"/><path d="M61.478 34.18L48.695 56.471a3.93 3.93 0 0 1-3.413 1.978h-9.766l6.035-10.49 9.058-15.736L41.55 16.49h12.022l7.901 13.778c.7 1.21.701 2.702.004 3.913z" fill="#EA4335" fill-rule="nonzero"/><path d="M53.576 16.49H23.44L14.39 32.223 8.385 21.787l7.919-13.809A3.93 3.93 0 0 1 19.716 6h25.57c1.409.001 2.71.756 3.412 1.978l4.878 8.512z" fill="#4285F4" fill-rule="nonzero"/><path fill="#E0E0E0" fill-rule="nonzero" d="M41.5506418 47.9561555L23.4438317 47.9561555 14.3895031 32.2225973 23.4410611 16.4895008 41.5543359 16.4895008 50.6058939 32.2225973z"/><circle fill="#FFF" fill-rule="nonzero" cx="32.499" cy="32.223" r="7.868"/><path d="M16.303 8.303a3.93 3.93 0 0 1 3.413-1.977h25.57c1.409 0 2.71.755 3.412 1.977l4.693 8.187h.188l-4.881-8.512A3.93 3.93 0 0 0 45.285 6H19.716c-1.41 0-2.712.755-3.413 1.978L8.385 21.787l.094.164 7.824-13.648z" fill="#FFF" fill-rule="nonzero" opacity=".2"/><path fill-opacity=".2" fill="#1A237E" fill-rule="nonzero" d="M14.3895031 32.2228282L23.4408302 16.4897317 53.5757487 16.4897317 53.3880404 16.1614153 23.4408302 16.1614153 14.3895031 31.8945118"/><path d="M3.52 30.594l4.865-8.482 6.004 10.436 9.052 15.733h17.922l.191-.329H23.441l-9.051-15.73-6.005-10.435-4.864 8.478a3.96 3.96 0 0 0-.513 2.122c.025-.63.2-1.245.513-1.794z" fill="#FFF" fill-rule="nonzero" opacity=".2"/><path d="M35.707 58.117h-15.99a3.934 3.934 0 0 1-3.414-1.978L3.52 33.852a3.949 3.949 0 0 1-.512-1.794 3.906 3.906 0 0 0 .512 2.122l12.784 22.291a3.93 3.93 0 0 0 3.412 1.978H35.52l.187-.332z" fill="#BF360C" fill-rule="nonzero" opacity=".2"/><path d="M50.793 32.223L41.742 16.49h-.188l9.055 15.733h.184zm10.685 1.63l-12.783 22.29a3.93 3.93 0 0 1-3.413 1.977h-9.575l-.19.329h9.765c1.41-.001 2.711-.755 3.413-1.978l12.783-22.29c.367-.645.545-1.381.513-2.123a3.949 3.949 0 0 1-.513 1.794z" fill="#3E2723" fill-rule="nonzero" opacity=".2"/><path d="M53.576 16.815l7.902 13.778c.311.549.487 1.164.513 1.794a3.907 3.907 0 0 0-.513-2.122l-7.902-13.778H41.554l.191.328h11.83zm-12.022 31.47l9.239-16.062h-.185l-9.054 15.733-6.034 10.49h.187l5.847-10.162z" fill="#FFF" fill-rule="nonzero" opacity=".2"/></g></svg>
