<svg fill="none" height="64" viewBox="0 0 64 64" width="64" xmlns="http://www.w3.org/2000/svg" xmlns:xlink="http://www.w3.org/1999/xlink"><clipPath id="a"><path d="m0 0h64v64h-64z"/></clipPath><g clip-path="url(#a)"><path d="m0 0h64v64h-64z" fill="#d50c2d"/><path d="m52.0371 10h-6.0442c-1.3604 0-1.9434.5636-1.9434 1.9435v15.295h-24.0795v-15.295c0-1.3605-.5636-1.9435-1.9435-1.9435h-6.083c-1.3799 0-1.9435.5636-1.9435 1.9435v39.3551c0 1.3798.5636 1.9435 1.9435 1.9435h6.083c1.3604 0 1.9435-.5442 1.9435-1.9435v-15.5477h24.0989v15.5477c0 1.3604.5636 1.9435 1.9435 1.9435h6.0441c1.3605 0 1.9435-.5637 1.9435-1.9435v-39.3551c-.0389-1.3216-.6025-1.9435-1.9629-1.9435z" fill="#fff"/></g></svg>