<svg width="64" height="64" xmlns="http://www.w3.org/2000/svg"><g fill="none" fill-rule="evenodd"><rect fill="#FFF" width="64" height="64" rx="5"/><path d="M10.67 20.297h35.51c3.913 0 7.407-1.795 9.752-4.596C51.04 9.348 43.365 5.25 34.727 5.25c-10.576 0-19.716 6.14-24.058 15.047" fill="#F0BF1A" fill-rule="nonzero"/><path d="M43.17 24.477H9.057a26.743 26.743 0 0 0 0 15.046H43.17c4.096 0 7.523-3.343 7.523-7.523a7.492 7.492 0 0 0-7.523-7.524" fill="#07A5DE" fill-rule="nonzero"/><path d="M56.023 48.183a12.67 12.67 0 0 0-9.677-4.48H10.67c4.342 8.908 13.482 15.047 24.058 15.047 8.69 0 16.41-4.147 21.296-10.567" fill="#3EBEB0" fill-rule="nonzero"/><path d="M9.057 24.477a26.74 26.74 0 0 0 0 15.046h22.326c.585-2.257.92-4.764.92-7.523 0-2.759-.335-5.266-.92-7.524H9.057z" fill="#231F20" fill-rule="nonzero"/><path d="M21.269 8.844c-4.515 2.676-8.276 6.688-10.617 11.453H30.38c-2.006-4.598-5.183-8.443-9.112-11.453" fill="#D7A229" fill-rule="nonzero"/><path d="M22.104 55.573a29.832 29.832 0 0 0 8.861-11.87H10.652c2.508 5.016 6.52 9.195 11.452 11.87" fill="#019B8F" fill-rule="nonzero"/></g></svg>
