<svg width="64" height="64" xmlns="http://www.w3.org/2000/svg"><g fill="none" fill-rule="evenodd"><rect fill="#FFF" width="64" height="64" rx="5"/><path d="M33.275 60l-1.491-.51s.182-7.6-2.546-8.145c-1.818-2.109.291-89.454 6.836-.29 0 0-2.254 1.127-2.654 3.054C32.983 56 33.274 60 33.274 60z" fill="#FFF" fill-rule="nonzero"/><path d="M33.275 60l-1.491-.51s.182-7.6-2.546-8.145c-1.818-2.109.291-89.454 6.836-.29 0 0-2.254 1.127-2.654 3.054C32.983 56 33.274 60 33.274 60z" fill="#A6A385" fill-rule="nonzero"/><path d="M34.075 52.655s13.054-8.582 10-26.437C41.129 13.236 34.184 8.982 33.42 7.345c-.836-1.163-1.636-3.2-1.636-3.2l.546 36.11c0 .036-1.128 11.055 1.745 12.4" fill="#FFF" fill-rule="nonzero"/><path d="M34.075 52.655s13.054-8.582 10-26.437C41.129 13.236 34.184 8.982 33.42 7.345c-.836-1.163-1.636-3.2-1.636-3.2l.546 36.11c0 .036-1.128 11.055 1.745 12.4" fill="#499D4A" fill-rule="nonzero"/><path d="M31.02 53.128s-12.254-8.364-11.527-23.091c.69-14.728 9.346-21.964 11.019-23.273 1.09-1.164 1.127-1.6 1.2-2.764.763 1.636.618 24.473.726 27.164.328 10.364-.581 20-1.417 21.964z" fill="#FFF" fill-rule="nonzero"/><path d="M31.02 53.128s-12.254-8.364-11.527-23.091c.69-14.728 9.346-21.964 11.019-23.273 1.09-1.164 1.127-1.6 1.2-2.764.763 1.636.618 24.473.726 27.164.328 10.364-.581 20-1.417 21.964z" fill="#58AA50" fill-rule="nonzero"/></g></svg>
