<svg width="64" height="64" xmlns="http://www.w3.org/2000/svg"><g fill="none" fill-rule="evenodd"><rect fill="#FFF" width="64" height="64" rx="5"/><path d="M53.819 46.218c-2.884-.071-5.12.217-6.994 1.01-.54.215-1.406.216-1.478.9.289.288.325.757.577 1.153.433.72 1.19 1.693 1.875 2.198.757.576 1.514 1.153 2.307 1.657 1.406.865 2.992 1.37 4.361 2.234.794.504 1.586 1.153 2.38 1.693.396.288.648.757 1.153.937v-.108c-.252-.324-.324-.793-.577-1.153-.36-.36-.72-.685-1.081-1.045-1.045-1.405-2.343-2.63-3.749-3.639-1.153-.792-3.677-1.873-4.145-3.206l-.073-.072c.794-.072 1.73-.36 2.488-.577 1.225-.324 2.343-.252 3.604-.576a31.306 31.306 0 0 0 1.73-.505v-.324c-.648-.648-1.117-1.513-1.802-2.126-1.838-1.585-3.857-3.134-5.947-4.431-1.118-.72-2.56-1.19-3.75-1.802-.432-.216-1.153-.324-1.405-.684-.649-.793-1.01-1.837-1.478-2.774-1.045-1.982-2.055-4.18-2.956-6.27-.648-1.405-1.045-2.81-1.838-4.107-3.713-6.125-7.75-9.835-13.95-13.475-1.334-.756-2.92-1.08-4.615-1.477-.9-.036-1.802-.108-2.703-.144-.577-.252-1.154-.937-1.658-1.26-2.055-1.298-7.354-4.108-8.868-.397-.973 2.342 1.442 4.647 2.271 5.837.614.828 1.406 1.765 1.839 2.702.252.612.324 1.26.576 1.91.577 1.584 1.118 3.35 1.875 4.827.397.757.829 1.55 1.334 2.234.288.396.792.576.901 1.225-.505.72-.54 1.801-.83 2.702-1.297 4.071-.792 9.115 1.046 12.106.577.9 1.947 2.882 3.785 2.125 1.622-.648 1.262-2.702 1.73-4.503.108-.433.036-.72.252-1.009v.072c.505 1.009 1.01 1.982 1.478 2.99 1.118 1.766 3.064 3.603 4.687 4.829.865.648 1.55 1.765 2.631 2.161v-.108h-.072c-.217-.324-.54-.468-.829-.72-.649-.649-1.37-1.442-1.875-2.162-1.513-2.018-2.847-4.252-4.037-6.558-.577-1.116-1.081-2.341-1.55-3.458-.216-.433-.216-1.081-.577-1.297-.54.792-1.333 1.477-1.73 2.45-.685 1.549-.757 3.458-1.01 5.44-.143.036-.071 0-.143.072-1.154-.288-1.55-1.477-1.983-2.486-1.082-2.558-1.262-6.665-.324-9.62.252-.756 1.333-3.134.901-3.855-.216-.684-.938-1.08-1.334-1.621-.469-.685-.973-1.549-1.297-2.306-.866-2.018-1.298-4.251-2.235-6.269-.433-.937-1.19-1.91-1.803-2.774-.685-.973-1.442-1.658-1.982-2.81-.18-.397-.433-1.045-.145-1.478.073-.288.217-.396.505-.468.469-.396 1.802.108 2.27.324 1.335.54 2.452 1.045 3.57 1.802.504.36 1.045 1.045 1.694 1.225h.757c1.153.252 2.45.072 3.532.396 1.911.612 3.64 1.513 5.191 2.486 4.723 2.99 8.615 7.242 11.247 12.322.433.828.612 1.585 1.009 2.45.757 1.765 1.694 3.567 2.451 5.296.757 1.693 1.478 3.423 2.56 4.828.54.756 2.703 1.153 3.676 1.55.721.323 1.839.612 2.488 1.008 1.225.756 2.45 1.621 3.604 2.45.577.432 2.38 1.333 2.488 2.053z" fill="#00546B" fill-rule="nonzero"/><path d="M16.537 15c-.637 0-1.087.084-1.537.209v.083h.075c.3.667.825 1.125 1.2 1.708.3.666.562 1.333.862 2l.075-.083c.526-.417.788-1.084.788-2.084-.225-.291-.263-.583-.45-.874-.225-.417-.713-.625-1.013-.959z" fill="#00546B" fill-rule="nonzero"/></g></svg>
