<svg width="64" height="64" xmlns="http://www.w3.org/2000/svg"><g fill="none" fill-rule="evenodd"><rect fill="#FFF" width="64" height="64" rx="5"/><path d="M56.865 36.748c-.307-.936-1.11-1.587-2.148-1.744-.49-.074-1.05-.042-1.714.096-1.157.24-2.015.332-2.64.35 2.363-4.023 4.285-8.61 5.392-12.93 1.789-6.982.832-10.163-.285-11.602-2.957-3.808-7.27-5.854-12.475-5.916-2.777-.035-5.214.518-6.485.915a23.987 23.987 0 0 0-3.793-.35c-2.503-.04-4.715.51-6.605 1.64a29.95 29.95 0 0 0-4.666-1.18c-4.561-.755-8.238-.166-10.927 1.749-3.256 2.318-4.765 6.346-4.486 11.973.088 1.786 1.08 7.22 2.64 12.375.898 2.963 1.854 5.423 2.844 7.313 1.403 2.68 2.904 4.259 4.59 4.825.945.318 2.661.54 4.467-.976.229.28.534.557.94.815a6.21 6.21 0 0 0 1.771.753c2.265.57 4.387.428 6.197-.372.01.324.02.634.027.902.011.434.023.86.04 1.258.106 2.692.288 4.786.826 6.25.03.08.07.203.112.334.268.829.718 2.216 1.86 3.303C33.53 57.655 34.962 58 36.272 58c.658 0 1.285-.087 1.835-.206 1.961-.423 4.189-1.069 5.8-3.381 1.523-2.186 2.263-5.479 2.397-10.667l.05-.42.031-.274.359.032.092.006c1.998.092 4.44-.335 5.94-1.038 1.185-.554 4.983-2.575 4.089-5.304" fill="#000" fill-rule="nonzero"/><path d="M54.653 37.326c-5.993 1.246-6.404-.799-6.404-.799 6.327-9.464 8.972-21.477 6.69-24.417-6.228-8.02-17.007-4.227-17.187-4.129l-.058.01c-1.184-.247-2.51-.394-3.999-.419-2.711-.045-4.768.717-6.329 1.91 0 0-19.23-7.985-18.336 10.043.19 3.835 5.454 29.02 11.732 21.413 2.294-2.782 4.512-5.134 4.512-5.134 1.1.738 2.419 1.114 3.801.979l.107-.092c-.033.345-.018.683.043 1.083-1.617 1.821-1.142 2.141-4.375 2.812-3.271.68-1.35 1.89-.095 2.206 1.521.383 5.04.926 7.419-2.43l-.095.384c.633.511 1.078 3.327 1.004 5.88-.075 2.553-.125 4.306.375 5.675.499 1.369.997 4.45 5.247 3.531 3.551-.767 5.391-2.755 5.647-6.071.182-2.357.593-2.009.62-4.117l.33-.997c.38-3.196.06-4.227 2.247-3.747l.532.047c1.61.074 3.718-.261 4.955-.84 2.664-1.247 4.244-3.327 1.617-2.78" fill="#336791" fill-rule="nonzero"/><path d="M28.446 21.37c-.53-.068-1.01-.004-1.252.169a.429.429 0 0 0-.19.288c-.03.206.123.433.217.551.265.332.654.56 1.039.611.056.007.111.011.166.011.642 0 1.225-.47 1.276-.818.065-.436-.606-.726-1.256-.811m17.551.014c-.05-.341-.694-.439-1.306-.359-.61.08-1.202.34-1.153.682.04.266.55.72 1.152.72.051 0 .103-.003.155-.01.402-.053.698-.294.838-.432.213-.212.337-.448.314-.601" fill="#FFF" fill-rule="nonzero"/><path d="M55.948 37.21c-.226-.7-.955-.926-2.164-.67-3.592.76-4.879.233-5.3-.085 2.791-4.36 5.088-9.628 6.327-14.544.587-2.329.91-4.491.937-6.254.03-1.935-.292-3.356-.955-4.225-2.674-3.501-6.597-5.38-11.348-5.43-3.265-.038-6.024.818-6.559 1.059a15.977 15.977 0 0 0-3.69-.486c-2.452-.04-4.571.561-6.325 1.787a27.703 27.703 0 0 0-5.14-1.381c-4.164-.687-7.473-.167-9.834 1.548-2.818 2.046-4.118 5.702-3.866 10.868.085 1.738 1.05 7.085 2.576 12.205 2.007 6.74 4.189 10.555 6.485 11.34.269.091.578.155.92.155.838 0 1.864-.386 2.932-1.703a107.534 107.534 0 0 1 4.043-4.687 6.385 6.385 0 0 0 2.908.802l.006.081c-.203.248-.37.464-.512.65-.703.913-.849 1.103-3.11 1.58-.644.137-2.353.498-2.378 1.725-.027 1.341 2.02 1.905 2.253 1.964a9.427 9.427 0 0 0 2.343.312c1.816 0 3.414-.612 4.691-1.795-.04 4.78.155 9.492.715 10.927.459 1.175 1.58 4.047 5.12 4.047.52 0 1.091-.062 1.72-.2 3.695-.812 5.3-2.485 5.92-6.175.332-1.972.902-6.68 1.17-9.206.566.18 1.295.264 2.082.264 1.642 0 3.537-.358 4.726-.923 1.334-.636 3.744-2.195 3.307-3.55zm-8.799-17.067c-.012.746-.113 1.423-.219 2.13-.114.76-.232 1.545-.262 2.499-.03.928.084 1.893.193 2.826.222 1.885.448 3.826-.43 5.74a7.544 7.544 0 0 1-.389-.819c-.109-.271-.346-.707-.674-1.31-1.276-2.346-4.266-7.84-2.736-10.082.456-.667 1.613-1.353 4.517-.984zm-3.52-12.632c4.256.097 7.623 1.728 10.006 4.85 1.828 2.394-.185 13.288-6.012 22.687a45.516 45.516 0 0 0-.251-.323c1.506-2.549 1.211-5.07.95-7.307-.108-.917-.21-1.784-.184-2.598.027-.863.138-1.603.245-2.318.133-.882.268-1.794.23-2.87a1.21 1.21 0 0 0 .025-.404c-.095-1.032-1.244-4.119-3.586-6.913-1.281-1.528-3.15-3.238-5.7-4.392a18.763 18.763 0 0 1 4.277-.412zm-23.815 32.92c-1.177 1.45-1.99 1.172-2.257 1.081-1.742-.595-3.763-4.368-5.544-10.35-1.542-5.176-2.443-10.38-2.514-11.84-.225-4.616.867-7.833 3.245-9.562 3.871-2.813 10.235-1.13 12.793-.275-.037.037-.075.072-.112.11-4.196 4.343-4.097 11.763-4.086 12.217 0 .175.014.423.034.763.072 1.248.206 3.571-.153 6.202-.333 2.445.402 4.837 2.017 6.565.166.177.34.345.522.504-.719.79-2.281 2.535-3.945 4.585zM24.3 34.3c-1.303-1.392-1.894-3.328-1.623-5.313.38-2.78.239-5.2.164-6.5-.01-.182-.02-.341-.025-.467.613-.557 3.454-2.117 5.48-1.641.924.217 1.487.862 1.722 1.972 1.212 5.745.16 8.14-.685 10.064-.174.397-.339.771-.48 1.16l-.108.299c-.276.758-.532 1.462-.691 2.131-1.384-.004-2.73-.61-3.754-1.705zm.212 7.748a3.207 3.207 0 0 1-.98-.432c.177-.086.494-.202 1.044-.318 2.66-.562 3.071-.958 3.969-2.126.206-.267.439-.57.762-.94.481-.553.701-.46 1.1-.29.324.138.639.553.766 1.01.06.216.129.626-.094.945-1.874 2.69-4.605 2.655-6.567 2.152zm13.924 13.28c-3.255.715-4.407-.987-5.167-2.933-.49-1.256-.73-6.92-.56-13.176a.77.77 0 0 0-.032-.24c-.02-.149-.05-.297-.09-.441-.255-.91-.874-1.672-1.617-1.988-.295-.125-.837-.355-1.488-.184.139-.587.38-1.249.64-1.966l.11-.301a17.8 17.8 0 0 1 .442-1.065c.884-2.014 2.095-4.772.78-11.002-.492-2.333-2.136-3.473-4.628-3.208-1.495.158-2.862.776-3.543 1.13-.147.077-.281.15-.406.222.19-2.351.909-6.745 3.598-9.525 1.694-1.75 3.95-2.615 6.697-2.568 5.414.09 8.886 2.938 10.846 5.31 1.688 2.046 2.602 4.106 2.967 5.216-2.744-.285-4.61.27-5.556 1.656-2.058 3.015 1.126 8.867 2.656 11.68.28.515.523.96.6 1.15.498 1.237 1.143 2.064 1.614 2.667.144.185.284.364.39.52-.83.246-2.323.813-2.187 3.65-.11 1.422-.89 8.084-1.286 10.438-.524 3.11-1.64 4.268-4.78 4.958zm13.586-15.934c-.85.404-2.271.708-3.622.773-1.493.071-2.252-.172-2.431-.321-.084-1.767.558-1.952 1.237-2.147.107-.031.211-.061.311-.097.063.052.131.104.206.154 1.2.812 3.339.9 6.359.26l.033-.007c-.407.39-1.104.915-2.092 1.385z" fill="#FFF" fill-rule="nonzero"/></g></svg>
