<svg width="64" height="64" xmlns="http://www.w3.org/2000/svg"><g fill="none" fill-rule="evenodd"><rect fill="#FFF" width="64" height="64" rx="5"/><path d="M57.096 44.565c-2.907 1.515-17.962 7.705-21.167 9.376-3.205 1.671-4.986 1.655-7.518.445s-18.553-7.682-21.44-9.062c-1.442-.69-2.2-1.271-2.2-1.82v-5.505s20.858-4.541 24.225-5.75c3.367-1.207 4.535-1.25 7.4-.201 2.867 1.05 20.001 4.141 22.833 5.178v5.427c0 .544-.654 1.141-2.133 1.912" fill="#912626" fill-rule="nonzero"/><path d="M57.095 39.093c-2.906 1.514-17.961 7.705-21.167 9.376-3.205 1.671-4.985 1.655-7.517.444-2.532-1.21-18.553-7.682-21.439-9.06-2.886-1.38-2.946-2.33-.111-3.44 2.834-1.11 18.768-7.361 22.135-8.57 3.367-1.207 4.535-1.251 7.4-.201 2.867 1.05 17.832 7.006 20.663 8.043 2.833 1.038 2.942 1.893.036 3.408" fill="#C6302B" fill-rule="nonzero"/><path d="M57.096 35.658c-2.907 1.515-17.962 7.706-21.167 9.377-3.205 1.67-4.986 1.655-7.518.444-2.532-1.21-18.553-7.682-21.44-9.062-1.442-.689-2.2-1.27-2.2-1.82v-5.505s20.858-4.54 24.225-5.749c3.367-1.208 4.535-1.251 7.4-.202 2.867 1.05 20.002 4.14 22.833 5.178v5.428c0 .544-.654 1.14-2.133 1.911" fill="#912626" fill-rule="nonzero"/><path d="M57.095 30.186c-2.906 1.515-17.961 7.705-21.167 9.376-3.205 1.671-4.985 1.655-7.517.444-2.532-1.21-18.553-7.682-21.439-9.06-2.886-1.38-2.946-2.33-.111-3.44 2.834-1.11 18.768-7.361 22.135-8.569 3.367-1.208 4.535-1.252 7.4-.202 2.867 1.05 17.832 7.006 20.663 8.043 2.833 1.038 2.942 1.894.036 3.408" fill="#C6302B" fill-rule="nonzero"/><path d="M57.096 26.421c-2.907 1.515-17.962 7.706-21.167 9.377-3.205 1.671-4.986 1.655-7.518.444-2.532-1.21-18.553-7.682-21.44-9.061-1.442-.69-2.2-1.271-2.2-1.82v-5.506s20.858-4.54 24.225-5.748c3.367-1.209 4.535-1.252 7.4-.203 2.867 1.05 20.002 4.141 22.833 5.179v5.427c0 .543-.654 1.14-2.133 1.911" fill="#912626" fill-rule="nonzero"/><path d="M57.095 20.95c-2.906 1.514-17.961 7.704-21.167 9.375-3.205 1.671-4.985 1.655-7.517.445S9.858 23.088 6.972 21.708c-2.886-1.379-2.946-2.329-.111-3.439 2.834-1.11 18.768-7.36 22.135-8.569 3.367-1.208 4.535-1.251 7.4-.202 2.867 1.05 17.832 7.006 20.663 8.044 2.833 1.037 2.942 1.893.036 3.407" fill="#C6302B" fill-rule="nonzero"/><path d="M38.655 15.594l-4.682.486-1.048 2.522-1.693-2.814-5.407-.486 4.034-1.455-1.21-2.233 3.777 1.477 3.56-1.165-.962 2.309 3.63 1.36M32.646 27.83l-8.738-3.624 12.521-1.922-3.783 5.546M20.53 16.996c3.696 0 6.693 1.162 6.693 2.594 0 1.433-2.997 2.595-6.693 2.595-3.696 0-6.692-1.162-6.692-2.595 0-1.432 2.996-2.594 6.692-2.594" fill="#FFF" fill-rule="nonzero"/><path fill="#621B1C" fill-rule="nonzero" d="M44.1883665 16.2836164L51.5990294 19.2122705 44.1947484 22.1377338 44.1883665 16.2836164"/><path fill="#9A2928" fill-rule="nonzero" d="M35.9897515 19.5268982L44.1883665 16.2836164 44.1947484 22.1379465 43.3908416 22.4523615 35.9897515 19.5266855"/></g></svg>
