<svg fill="none" height="224" viewBox="0 0 1312 224" width="1312" xmlns="http://www.w3.org/2000/svg" xmlns:xlink="http://www.w3.org/1999/xlink"><clipPath id="a"><path d="m0 0h1312v224h-1312z"/></clipPath><g clip-path="url(#a)"><g fill="#f6c90c"><path clip-rule="evenodd" d="m80.5 218-80.098389-134h44.249989 44.25l37.0984 58.5z" fill-rule="evenodd"/><path clip-rule="evenodd" d="m347.5 218 78.5-134h-88.5l-36.5 58z" fill-rule="evenodd"/><path d="m252.967 224-39.467-68.092-39.467 68.092h-90.033l84.483-140h90.017l84.5 140z"/><path d="m44.3237 0-44.3237 78h426l-44.324-78z"/></g><path clip-rule="evenodd" d="m612.83 116.158c-3.082 11.988-6.356 23.896-9.823 35.726s-7.127 23.739-10.979 35.726h-26.811c-2.774-6.624-5.779-14.511-9.014-23.659-3.236-9.149-6.588-19.125-10.055-29.93s-7.01-22.24-10.632-34.3068c-3.621-12.0665-7.126-24.2512-10.516-36.5544h36.288c1.232 5.6784 2.58 11.8693 4.044 18.573 1.464 6.7036 3.005 13.6043 4.623 20.7022 1.618 7.098 3.313 14.235 5.085 21.412s3.582 14.078 5.431 20.703c2.004-6.941 3.968-14.039 5.894-21.294 1.926-7.256 3.775-14.393 5.547-21.412 1.772-7.0195 3.467-13.8019 5.085-20.3478s3.043-12.658 4.276-18.3364h24.962c1.233 5.6784 2.62 11.7905 4.161 18.3364 1.54 6.5459 3.158 13.3283 4.853 20.3478 1.695 7.019 3.467 14.156 5.316 21.412 1.849 7.255 3.775 14.353 5.779 21.294 1.849-6.625 3.698-13.526 5.547-20.703s3.582-14.314 5.2-21.412c1.618-7.0979 3.159-13.9986 4.623-20.7022 1.464-6.7037 2.812-12.8946 4.045-18.573h35.825c-3.39 12.3032-6.896 24.4879-10.517 36.5544-3.621 12.0668-7.165 23.5018-10.632 34.3068s-6.856 20.781-10.169 29.93c-3.313 9.148-6.356 17.035-9.13 23.659h-26.811c-3.852-11.987-7.627-23.896-11.326-35.726-3.698-11.83-7.088-23.738-10.169-35.726zm101.466 10.174c0-11.042 1.656-20.703 4.969-28.9837 3.313-8.281 7.666-15.1817 13.059-20.7024 5.393-5.5206 11.595-9.7005 18.606-12.5397s14.215-4.2588 21.611-4.2588c17.258 0 30.894 5.4023 40.91 16.207s15.024 26.6956 15.024 47.6746c0 2.05-.077 4.298-.232 6.743-.154 2.445-.308 4.614-.462 6.506h-78.122c.77 7.256 4.083 13.013 9.939 17.272 5.855 4.259 13.713 6.388 23.575 6.388 6.318 0 12.52-.591 18.606-1.774s11.056-2.642 14.908-4.377l4.623 28.628c-1.849.946-4.315 1.893-7.397 2.839-3.081.947-6.51 1.775-10.285 2.485-3.775.709-7.82 1.301-12.134 1.774-4.315.473-8.629.71-12.944.71-10.94 0-20.455-1.656-28.544-4.969-8.09-3.312-14.793-7.847-20.109-13.604s-9.245-12.579-11.787-20.466c-2.543-7.887-3.814-16.404-3.814-25.552zm80.896-13.487c-.154-2.997-.655-5.915-1.503-8.754-.847-2.839-2.157-5.3626-3.929-7.5708-1.772-2.2083-4.006-4.0222-6.703-5.4418-2.696-1.4196-6.047-2.1294-10.054-2.1294-3.852 0-7.165.6704-9.938 2.0111-2.774 1.3407-5.085 3.1152-6.934 5.3235-1.849 2.2082-3.275 4.7714-4.276 7.6894-1.002 2.918-1.734 5.875-2.196 8.872zm133.131-18.4542c-3.082-.7887-6.703-1.6168-10.863-2.4843-4.161-.8675-8.629-1.3013-13.406-1.3013-2.157 0-4.738.1972-7.743.5915-3.004.3943-5.277.8281-6.818 1.3013v95.112h-34.438v-117.8254c6.163-2.2083 13.444-4.2982 21.842-6.2699 8.397-1.9716 17.758-2.9575 28.082-2.9575 1.849 0 4.083.1183 6.703.3549 2.619.2366 5.239.5521 7.858.9464 2.62.3944 5.239.8676 7.859 1.4196 2.619.5521 4.853 1.2224 6.702 2.0111zm102.157 30.0482c0-22.714-8.16-34.0704-24.5-34.0704-3.54 0-7.046.4732-10.513 1.4196s-6.279 2.1294-8.437 3.549v64.1178c1.695.316 3.852.592 6.472.828 2.619.237 5.47.355 8.548.355 9.4 0 16.49-3.312 21.27-9.937 4.77-6.625 7.16-15.379 7.16-26.262zm35.13.946c0 9.937-1.42 18.928-4.27 26.972-2.85 8.045-6.97 14.906-12.37 20.584-5.39 5.679-12.02 10.056-19.87 13.132-7.86 3.075-16.8 4.613-26.82 4.613-4.155 0-8.508-.197-13.054-.591-4.546-.395-9.014-.907-13.406-1.538-4.391-.631-8.59-1.38-12.596-2.248-4.007-.867-7.55-1.774-10.632-2.721v-151.9096l34.438-5.6784v39.999c3.852-1.7351 7.859-3.0758 12.019-4.0222 4.161-.9464 8.631-1.4196 13.401-1.4196 8.63 0 16.26 1.5379 22.89 4.6137 6.62 3.0758 12.17 7.4528 16.64 13.1312s7.86 12.5002 10.17 20.4657c2.31 7.9652 3.46 16.8382 3.46 26.6172zm140.3-.236c0 9.779-1.39 18.73-4.16 26.853-2.77 8.124-6.78 15.064-12.02 20.821s-11.52 10.213-18.84 13.368c-7.31 3.154-15.52 4.732-24.61 4.732-8.94 0-17.07-1.578-24.39-4.732-7.31-3.155-13.59-7.611-18.83-13.368s-9.32-12.697-12.25-20.821c-2.93-8.123-4.39-17.074-4.39-26.853 0-9.78 1.5-18.692 4.5-26.7361 3.01-8.0443 7.17-14.9056 12.48-20.584 5.32-5.6784 11.64-10.0948 18.96-13.2495 7.32-3.1546 15.29-4.732 23.92-4.732 8.78 0 16.83 1.5774 24.15 4.732 7.32 3.1547 13.6 7.5711 18.84 13.2495s9.32 12.5397 12.25 20.584c2.93 8.0441 4.39 16.9561 4.39 26.7361zm-35.13 0c0-10.884-2.12-19.441-6.36-25.6714-4.23-6.2304-10.28-9.3456-18.14-9.3456s-13.95 3.1152-18.26 9.3456-6.47 14.7874-6.47 25.6714c0 10.883 2.16 19.519 6.47 25.907s10.4 9.582 18.26 9.582 13.91-3.194 18.14-9.582c4.24-6.388 6.36-15.024 6.36-25.907zm60.56-92.9835 34.43-5.6784v36.6727h41.38v29.3382h-41.38v43.771c0 7.413 1.28 13.328 3.82 17.744 2.54 4.417 7.66 6.625 15.37 6.625 3.7 0 7.51-.355 11.44-1.064 3.93-.71 7.51-1.696 10.75-2.958l4.85 27.445c-4.16 1.736-8.78 3.234-13.87 4.496-5.08 1.262-11.32 1.893-18.72 1.893-9.4 0-17.18-1.302-23.34-3.904-6.17-2.603-11.1-6.231-14.8-10.884-3.69-4.653-6.27-10.292-7.74-16.917-1.46-6.624-2.19-13.959-2.19-22.003z" fill="#313131" fill-rule="evenodd"/></g></svg>
