<svg fill="none" height="216" viewBox="0 0 218 216" width="218" xmlns="http://www.w3.org/2000/svg" xmlns:xlink="http://www.w3.org/1999/xlink"><mask id="a" fill="#fff"><path d="m163.865 65.9463c-.958.1194-1.931.0392-2.857-.2356-.926-.2749-1.785-.7383-2.523-1.3611-.738-.6229-1.339-1.3918-1.765-2.2583-.427-.8665-.67-1.8119-.713-2.7767s.113-1.9281.46-2.8294.877-1.7211 1.556-2.4077c.679-.6867 1.493-1.2253 2.391-1.5822.897-.3568 1.859-.5241 2.824-.4913l-.069 2.0232c-.686-.0233-1.369.0956-2.007.3492-.638.2537-1.217.6366-1.7 1.1246-.482.4881-.859 1.0708-1.105 1.7115-.247.6406-.358 1.3254-.328 2.0111.031.6858.204 1.3578.507 1.9737s.73 1.1624 1.255 1.6052c.525.4427 1.135.7721 1.793.9675.658.1953 1.35.2523 2.031.1675z" fill="#fff"/></mask><mask id="b" fill="#fff"><path d="m82.8652 14.9463c-.9584.1194-1.9311.0392-2.857-.2356-.9258-.2749-1.7848-.7383-2.5229-1.3611-.738-.6229-1.3392-1.3918-1.7657-2.2583s-.6691-1.81188-.7125-2.77668.1133-1.92814.4602-2.82944c.347-.9013.8767-1.72105 1.5559-2.4077.6791-.68664 1.493-1.22532 2.3904-1.58215.8975-.35684 1.8591-.524106 2.8243-.49129l-.0688 2.0232c-.6861-.02333-1.3696.09556-2.0075.3492s-1.2164.63654-1.6992 1.12461c-.4827.48807-.8592 1.07075-1.1059 1.7114-.2466.64065-.358 1.3254-.3271 2.01119.0308.68578.2033 1.35776.5064 1.97366.3032.6159.7305 1.1624 1.2551 1.6052.5247.4427 1.1352.7721 1.7933.9675.6581.1953 1.3495.2523 2.0308.1675z" fill="#fff"/></mask><mask id="c" fill="#fff"><path d="m9.05405 55.8658c-.11941-.9583-.03922-1.9311.23554-2.8569.27476-.9259.73811-1.7849 1.36101-2.523.6228-.7381 1.3917-1.3393 2.2581-1.7659.8665-.4265 1.8119-.6691 2.7767-.7126.9648-.0434 1.9281.1132 2.8294.4602.9014.3469 1.7211.8766 2.4078 1.5557s1.2254 1.4929 1.5823 2.3904c.3569.8974.5242 1.859.4914 2.8242l-2.0232-.0687c.0233-.6861-.0956-1.3696-.3493-2.0075s-.6366-1.2164-1.1247-1.6991-1.0708-.8592-1.7114-1.1058c-.6407-.2466-1.3255-.358-2.0112-.3271-.6858.0309-1.3578.2034-1.9737.5066s-1.1624.7305-1.6051 1.2552c-.4427.5246-.7721 1.1352-.9674 1.7933s-.2523 1.3495-.1674 2.0307z" fill="#fff"/></mask><mask id="d" fill="#fff"><path d="m73.054 103.866c-.1194-.959-.0392-1.931.2356-2.857.2747-.926.7381-1.785 1.361-2.5231.6228-.7381 1.3917-1.3393 2.2581-1.7659.8665-.4265 1.8119-.6691 2.7767-.7126.9648-.0434 1.9281.1132 2.8294.4602.9014.3469 1.7211.8766 2.4078 1.5557s1.2254 1.4929 1.5823 2.3907c.3569.897.5242 1.859.4914 2.824l-2.0232-.069c.0233-.686-.0956-1.369-.3493-2.007s-.6366-1.2167-1.1247-1.6994-1.0708-.8592-1.7114-1.1058c-.6407-.2466-1.3255-.358-2.0112-.3271-.6858.0309-1.3578.2034-1.9737.5066s-1.1624.7305-1.6051 1.2552c-.4427.5245-.7721 1.1355-.9674 1.7935s-.2523 1.349-.1674 2.031z" fill="#fff"/></mask><mask id="e" fill="#fff"><path d="m121.054 196.866c-.119-.959-.039-1.931.236-2.857.274-.926.738-1.785 1.361-2.523.622-.738 1.391-1.339 2.258-1.766.866-.426 1.812-.669 2.776-.713.965-.043 1.929.114 2.83.461.901.346 1.721.876 2.408 1.555.686.679 1.225 1.493 1.582 2.391.357.897.524 1.859.491 2.824l-2.023-.069c.023-.686-.096-1.369-.349-2.007-.254-.638-.637-1.217-1.125-1.699-.488-.483-1.071-.86-1.711-1.106-.641-.247-1.326-.358-2.012-.327-.685.031-1.357.203-1.973.506s-1.163.731-1.605 1.255c-.443.525-.772 1.136-.968 1.794-.195.658-.252 1.349-.167 2.031z" fill="#fff"/></mask><mask id="f" fill="#fff"><path d="m17.8652 205.946c-.9584.12-1.9311.039-2.857-.235-.9258-.275-1.7848-.739-2.5229-1.361-.738-.623-1.3392-1.392-1.7657-2.259-.4265-.866-.6691-1.812-.7125-2.776-.04343-.965.1133-1.929.4602-2.83.347-.901.8767-1.721 1.5559-2.408.6791-.686 1.493-1.225 2.3904-1.582.8975-.357 1.8591-.524 2.8243-.491l-.0688 2.023c-.6861-.023-1.3696.096-2.0075.349-.6379.254-1.2164.637-1.6992 1.125-.4827.488-.8592 1.071-1.1059 1.711-.2466.641-.358 1.326-.3271 2.012.0308.685.2033 1.357.5064 1.973.3032.616.7305 1.163 1.2551 1.605.5247.443 1.1352.773 1.7933.968s1.3495.252 2.0308.167z" fill="#fff"/></mask><g stroke="#e6e6e6"><path d="m48.5 12-14.5 4 11 11z" stroke-linejoin="round" stroke-width="2"/><path d="m42.5 177-14.5 4 11 11z" stroke-linejoin="round" stroke-width="2"/><path d="m179.5 101-14.5 4 11 11z" stroke-linejoin="round" stroke-width="2"/><path d="m114.327 45-7.519 13.0271 15.556.1132z" stroke-linejoin="round" stroke-width="2"/><path d="m147.327 154-7.519 13.027 15.556.113z" stroke-linejoin="round" stroke-width="2"/><path d="m101.327 129-7.5192 13.027 15.5562.113z" stroke-linejoin="round" stroke-width="2"/><path d="m47.8621 102.353-13.0082-7.5524-.1522 15.5554z" stroke-linejoin="round" stroke-width="2"/><path d="m192.862 24.3528-13.008-7.5522-.152 15.5556z" stroke-linejoin="round" stroke-width="2"/><path d="m66 58h-12v12h12z" stroke-linejoin="round" stroke-width="2"/><path d="m152 2h-12v12h12z" stroke-linejoin="round" stroke-width="2"/><path d="m201 53h-12v12h12z" stroke-linejoin="round" stroke-width="2"/><path d="m65 134h-12v12h12z" stroke-linejoin="round" stroke-width="2"/><path d="m202 193h-12v12h12z" stroke-linejoin="round" stroke-width="2"/><circle cx="96" cy="27" r="6" stroke-width="2"/><circle cx="125" cy="94" r="6" stroke-width="2"/><circle cx="14" cy="141" r="6" stroke-width="2"/><circle cx="201" cy="147" r="6" stroke-width="2"/><circle cx="99" cy="204" r="6" stroke-width="2"/><path d="m163.865 65.9463c-.958.1194-1.931.0392-2.857-.2356-.926-.2749-1.785-.7383-2.523-1.3611-.738-.6229-1.339-1.3918-1.765-2.2583-.427-.8665-.67-1.8119-.713-2.7767s.113-1.9281.46-2.8294.877-1.7211 1.556-2.4077c.679-.6867 1.493-1.2253 2.391-1.5822.897-.3568 1.859-.5241 2.824-.4913l-.069 2.0232c-.686-.0233-1.369.0956-2.007.3492-.638.2537-1.217.6366-1.7 1.1246-.482.4881-.859 1.0708-1.105 1.7115-.247.6406-.358 1.3254-.328 2.0111.031.6858.204 1.3578.507 1.9737s.73 1.1624 1.255 1.6052c.525.4427 1.135.7721 1.793.9675.658.1953 1.35.2523 2.031.1675z" mask="url(#a)" stroke-width="4"/><path d="m82.8652 14.9463c-.9584.1194-1.9311.0392-2.857-.2356-.9258-.2749-1.7848-.7383-2.5229-1.3611-.738-.6229-1.3392-1.3918-1.7657-2.2583s-.6691-1.81188-.7125-2.77668.1133-1.92814.4602-2.82944c.347-.9013.8767-1.72105 1.5559-2.4077.6791-.68664 1.493-1.22532 2.3904-1.58215.8975-.35684 1.8591-.524106 2.8243-.49129l-.0688 2.0232c-.6861-.02333-1.3696.09556-2.0075.3492s-1.2164.63654-1.6992 1.12461c-.4827.48807-.8592 1.07075-1.1059 1.7114-.2466.64065-.358 1.3254-.3271 2.01119.0308.68578.2033 1.35776.5064 1.97366.3032.6159.7305 1.1624 1.2551 1.6052.5247.4427 1.1352.7721 1.7933.9675.6581.1953 1.3495.2523 2.0308.1675z" mask="url(#b)" stroke-width="4"/><path d="m9.05405 55.8658c-.11941-.9583-.03922-1.9311.23554-2.8569.27476-.9259.73811-1.7849 1.36101-2.523.6228-.7381 1.3917-1.3393 2.2581-1.7659.8665-.4265 1.8119-.6691 2.7767-.7126.9648-.0434 1.9281.1132 2.8294.4602.9014.3469 1.7211.8766 2.4078 1.5557s1.2254 1.4929 1.5823 2.3904c.3569.8974.5242 1.859.4914 2.8242l-2.0232-.0687c.0233-.6861-.0956-1.3696-.3493-2.0075s-.6366-1.2164-1.1247-1.6991-1.0708-.8592-1.7114-1.1058c-.6407-.2466-1.3255-.358-2.0112-.3271-.6858.0309-1.3578.2034-1.9737.5066s-1.1624.7305-1.6051 1.2552c-.4427.5246-.7721 1.1352-.9674 1.7933s-.2523 1.3495-.1674 2.0307z" mask="url(#c)" stroke-width="4"/><path d="m73.054 103.866c-.1194-.959-.0392-1.931.2356-2.857.2747-.926.7381-1.785 1.361-2.5231.6228-.7381 1.3917-1.3393 2.2581-1.7659.8665-.4265 1.8119-.6691 2.7767-.7126.9648-.0434 1.9281.1132 2.8294.4602.9014.3469 1.7211.8766 2.4078 1.5557s1.2254 1.4929 1.5823 2.3907c.3569.897.5242 1.859.4914 2.824l-2.0232-.069c.0233-.686-.0956-1.369-.3493-2.007s-.6366-1.2167-1.1247-1.6994-1.0708-.8592-1.7114-1.1058c-.6407-.2466-1.3255-.358-2.0112-.3271-.6858.0309-1.3578.2034-1.9737.5066s-1.1624.7305-1.6051 1.2552c-.4427.5245-.7721 1.1355-.9674 1.7935s-.2523 1.349-.1674 2.031z" mask="url(#d)" stroke-width="4"/><path d="m121.054 196.866c-.119-.959-.039-1.931.236-2.857.274-.926.738-1.785 1.361-2.523.622-.738 1.391-1.339 2.258-1.766.866-.426 1.812-.669 2.776-.713.965-.043 1.929.114 2.83.461.901.346 1.721.876 2.408 1.555.686.679 1.225 1.493 1.582 2.391.357.897.524 1.859.491 2.824l-2.023-.069c.023-.686-.096-1.369-.349-2.007-.254-.638-.637-1.217-1.125-1.699-.488-.483-1.071-.86-1.711-1.106-.641-.247-1.326-.358-2.012-.327-.685.031-1.357.203-1.973.506s-1.163.731-1.605 1.255c-.443.525-.772 1.136-.968 1.794-.195.658-.252 1.349-.167 2.031z" mask="url(#e)" stroke-width="4"/><path d="m17.8652 205.946c-.9584.12-1.9311.039-2.857-.235-.9258-.275-1.7848-.739-2.5229-1.361-.738-.623-1.3392-1.392-1.7657-2.259-.4265-.866-.6691-1.812-.7125-2.776-.04343-.965.1133-1.929.4602-2.83.347-.901.8767-1.721 1.5559-2.408.6791-.686 1.493-1.225 2.3904-1.582.8975-.357 1.8591-.524 2.8243-.491l-.0688 2.023c-.6861-.023-1.3696.096-2.0075.349-.6379.254-1.2164.637-1.6992 1.125-.4827.488-.8592 1.071-1.1059 1.711-.2466.641-.358 1.326-.3271 2.012.0308.685.2033 1.357.5064 1.973.3032.616.7305 1.163 1.2551 1.605.5247.443 1.1352.773 1.7933.968s1.3495.252 2.0308.167z" mask="url(#f)" stroke-width="4"/><g stroke-width="2"><circle cx="105.5" cy="100.5" r="2.5"/><circle cx="20.5" cy="119.5" r="2.5"/><circle cx="44.5" cy="44.5" r="2.5"/><circle cx="175.5" cy="44.5" r="2.5"/><circle cx="209.5" cy="128.5" r="2.5"/><circle cx="124.5" cy="165.5" r="2.5"/><path d="m136 135h12m-137-122.5 9.5-9m170.5 0h12m-201 92.5h12m41.5 108.5h12m70.5-171.5h12m-59 146 9.5-9m98-60.5 9.5-9" stroke-linecap="round" stroke-linejoin="round"/><path d="m70.5 43 6-6m-6 0 6 6" stroke-linecap="round" stroke-linejoin="round"/><path d="m141 72 6-6m-6 0 6 6" stroke-linecap="round" stroke-linejoin="round"/><path d="m77 126 6-6m-6 0 6 6" stroke-linecap="round" stroke-linejoin="round"/><path d="m170 136 6-6m-6 0 6 6" stroke-linecap="round" stroke-linejoin="round"/><path d="m211 43 6-6m-6 0 6 6" stroke-linecap="round" stroke-linejoin="round"/><path d="m6 172 6-6m-6 0 6 6" stroke-linecap="round" stroke-linejoin="round"/><path d="m165 189 6-6m-6 0 6 6" stroke-linecap="round" stroke-linejoin="round"/><path d="m70.5 43 6-6m-6 0 6 6" stroke-linecap="round" stroke-linejoin="round"/><path d="m4 36 6-6m-6 0 6 6" stroke-linecap="round" stroke-linejoin="round"/><path d="m10 75 6 4.5 5.5-4.5 6 4.5 5-4.5" stroke-linecap="round" stroke-linejoin="round"/><path d="m117 118 6 4.5 5.5-4.5 6 4.5 5-4.5" stroke-linecap="round" stroke-linejoin="round"/><path d="m164 80 6 4.5 5.5-4.5 6 4.5 5-4.5" stroke-linecap="round" stroke-linejoin="round"/><path d="m148 204 6 4.5 5.5-4.5 6 4.5 5-4.5" stroke-linecap="round" stroke-linejoin="round"/><path d="m177.077 172.651 4.569-5.948-4.437-5.551 4.569-5.948-4.443-5.051" stroke-linecap="round" stroke-linejoin="round"/><path d="m63 180.499 4.5686-5.948-4.4366-5.552 4.5685-5.948-4.4423-5.051" stroke-linecap="round" stroke-linejoin="round"/><path d="m85 80.4985 4.5686-5.9479-4.4366-5.5513 4.5685-5.948-4.4423-5.0513" stroke-linecap="round" stroke-linejoin="round"/><path d="m119 23.4985 4.569-5.9479-4.437-5.5513 4.569-5.94799-4.443-5.05131" stroke-linecap="round" stroke-linejoin="round"/></g></g></svg>
