<svg width="64" height="64" xmlns="http://www.w3.org/2000/svg"><g fill="none" fill-rule="evenodd"><rect fill="#FFF" width="64" height="64" rx="5"/><path d="M59.803 26.486c-1.306-.999-4.3-1.373-6.64-.874-.271-2.496-1.523-4.68-3.7-6.614L48.212 18l-.871 1.435c-1.088 1.872-1.633 4.493-1.47 6.989.055.873.327 2.433 1.143 3.806-.761.499-2.34 1.123-4.407 1.123H3.262l-.11.499c-.38 2.495-.38 10.295 4.082 16.285C10.608 52.69 15.614 55 22.2 55c14.258 0 24.815-7.55 29.767-21.214 1.96.062 6.15 0 8.272-4.68.055-.125.163-.374.544-1.31l.218-.5-1.197-.81zM35 10h-6v6h6v-6zm0 7h-6v6h6v-6zm-7 0h-6v6h6v-6zm-7 0h-6v6h6v-6zm-7 7H8v6h6v-6zm7 0h-6v6h6v-6zm7 0h-6v6h6v-6zm7 0h-6v6h6v-6zm7 0h-6v6h6v-6z" fill="#2396ED" fill-rule="nonzero"/></g></svg>
