<svg width="64" height="64" xmlns="http://www.w3.org/2000/svg"><g fill="none" fill-rule="evenodd"><rect fill="#FFF" width="64" height="64" rx="5"/><path d="M21.872 58a4.254 4.254 0 0 1-3.342-1.603L5.95 40.904c-.826-1.033-1.15-2.35-.826-3.633l4.492-19.34c.288-1.282 1.15-2.315 2.336-2.884l18.187-8.62A4.228 4.228 0 0 1 32.008 6c.647 0 1.294.142 1.869.427l18.186 8.584c1.186.57 2.048 1.603 2.336 2.885l4.493 19.34c.287 1.282 0 2.6-.827 3.632l-12.58 15.494c-.826.997-2.048 1.602-3.342 1.602L21.873 58z" fill="#326DE6" fill-rule="nonzero"/><path d="M32.054 6.685c.507 0 1.014.108 1.485.323l18.322 8.641c.941.467 1.666 1.327 1.883 2.331l4.526 19.47c.253 1.04 0 2.116-.688 2.94L44.909 55.988c-.652.825-1.666 1.29-2.716 1.29H21.88c-1.05 0-2.065-.465-2.716-1.29L6.49 40.39a3.563 3.563 0 0 1-.687-2.94l4.526-19.47c.253-1.04.941-1.9 1.883-2.33l18.321-8.678a4.404 4.404 0 0 1 1.521-.287zm0-1.685c-.76 0-1.52.18-2.245.502l-18.322 8.677a5.088 5.088 0 0 0-2.824 3.478l-4.526 19.47c-.362 1.542 0 3.12 1.014 4.375L17.824 57.1c.978 1.219 2.462 1.9 4.02 1.9h20.313c1.557 0 3.041-.681 4.019-1.9l12.673-15.598c1.014-1.22 1.376-2.833 1.014-4.375l-4.526-19.47a5.088 5.088 0 0 0-2.824-3.478l-18.25-8.677A5.24 5.24 0 0 0 32.054 5z" fill="#FFF" fill-rule="nonzero"/><path d="M49.966 35.536c-.036 0-.036 0 0 0h-.036c-.036 0-.071 0-.071-.036-.071 0-.143-.036-.214-.036-.25-.035-.464-.071-.678-.071-.107 0-.214 0-.356-.036h-.036c-.75-.071-1.355-.143-1.926-.321-.25-.108-.321-.25-.392-.393 0-.036-.036-.036-.036-.072l-.464-.142c.22-1.68.135-3.386-.25-5.036a14.727 14.727 0 0 0-1.997-4.679l.357-.321v-.072c0-.178.036-.357.179-.535.428-.393.963-.715 1.604-1.108.107-.07.214-.107.321-.178.214-.107.393-.214.607-.357.035-.036.107-.072.178-.143.036-.036.071-.036.071-.071.5-.429.607-1.143.25-1.608-.178-.25-.5-.392-.82-.392-.286 0-.535.107-.785.285l-.071.072c-.072.035-.107.107-.179.142-.178.18-.32.322-.463.5-.071.072-.143.18-.25.25-.5.536-.963.965-1.426 1.286a.575.575 0 0 1-.321.107c-.072 0-.143 0-.214-.035h-.072l-.428.285c-.463-.5-.963-.928-1.462-1.357a14.232 14.232 0 0 0-7.454-2.964l-.036-.464-.07-.072c-.108-.107-.25-.214-.286-.464-.036-.572.036-1.214.107-1.929v-.035c0-.108.035-.25.071-.358.036-.214.072-.428.107-.678v-.321c0-.643-.5-1.179-1.105-1.179-.286 0-.57.143-.785.357-.214.214-.321.5-.321.822v.285c0 .25.036.464.107.679.036.107.036.214.071.357v.036c.072.714.179 1.357.107 1.928-.035.25-.178.357-.285.465l-.071.07-.036.465c-.642.072-1.284.143-1.926.286-2.746.607-5.171 2-7.061 4l-.357-.25h-.071c-.072 0-.143.036-.214.036a.575.575 0 0 1-.321-.107c-.464-.322-.928-.786-1.427-1.322-.071-.071-.142-.179-.25-.25a5.898 5.898 0 0 0-.463-.5c-.036-.036-.107-.071-.179-.143-.035-.035-.07-.035-.07-.071a1.245 1.245 0 0 0-.786-.286c-.32 0-.642.143-.82.393-.356.464-.25 1.178.25 1.607.036 0 .036.036.071.036.071.036.107.107.179.143.213.142.392.25.606.357.107.036.214.107.32.178.643.393 1.178.715 1.606 1.107.178.179.178.358.178.536v.072l.357.321c-.072.107-.143.179-.179.286-1.783 2.821-2.46 6.143-1.997 9.429l-.463.142c0 .036-.036.036-.036.072a.829.829 0 0 1-.392.392c-.536.18-1.177.25-1.926.322H15.3c-.107 0-.25 0-.357.036-.214 0-.428.035-.677.071-.072 0-.143.036-.214.036-.036 0-.072 0-.107.036-.642.142-1.035.75-.927 1.32.106.501.57.823 1.14.823.108 0 .18 0 .286-.036.036 0 .071 0 .071-.036.072 0 .143-.036.214-.036.25-.071.428-.142.642-.25.107-.036.214-.107.321-.143h.036c.678-.25 1.284-.464 1.854-.535h.072c.214 0 .356.107.464.178.035 0 .035.036.07.036l.5-.071c.856 2.642 2.497 5 4.672 6.714.5.393.999.714 1.534 1.036l-.214.464c0 .036.036.036.036.071.07.143.142.322.07.572-.213.536-.534 1.071-.926 1.678v.036c-.072.107-.143.179-.214.286-.143.178-.25.357-.393.571-.035.036-.071.107-.107.179 0 .036-.036.071-.036.071-.285.607-.07 1.286.464 1.536a.95.95 0 0 0 .428.107c.428 0 .856-.285 1.07-.679 0-.035.036-.07.036-.07.035-.072.07-.144.107-.18.107-.25.142-.428.214-.642l.107-.322c.25-.714.428-1.286.749-1.785.142-.215.32-.25.463-.322.036 0 .036 0 .072-.036l.25-.464c1.568.607 3.28.929 4.992.929 1.035 0 2.104-.107 3.103-.357.629-.141 1.248-.32 1.855-.536l.214.393c.035 0 .035 0 .07.035.18.036.322.108.465.322.285.5.499 1.107.749 1.786v.035l.106.322c.072.214.108.428.214.642.036.072.072.108.108.18 0 .035.035.07.035.07.214.429.642.679 1.07.679a.95.95 0 0 0 .428-.107c.25-.143.464-.357.535-.643.071-.286.071-.607-.071-.893 0-.035-.036-.035-.036-.071a.772.772 0 0 0-.107-.179c-.107-.214-.25-.393-.392-.571-.071-.107-.143-.179-.214-.286v-.036c-.392-.607-.75-1.142-.928-1.678-.07-.25 0-.393.036-.572 0-.035.036-.035.036-.07l-.178-.43c1.89-1.107 3.495-2.678 4.707-4.607.642-1 1.141-2.107 1.498-3.214l.428.071c.036 0 .036-.035.071-.035.143-.072.25-.18.464-.18h.071c.571.072 1.177.287 1.855.537h.036c.107.035.214.107.32.142.214.108.393.18.643.25.07 0 .142.036.213.036.036 0 .072 0 .108.036.106.036.178.036.285.036A1.2 1.2 0 0 0 51 36.714c0-.428-.392-1-1.034-1.178zm-16.513-1.75l-1.569.75-1.57-.75-.392-1.679 1.07-1.357h1.748l1.07 1.357-.357 1.679zm9.309-3.715c.276 1.181.36 2.4.25 3.608l-5.458-1.572a.968.968 0 0 1-.677-1.143.853.853 0 0 1 .214-.393l4.315-3.893c.607 1 1.07 2.143 1.356 3.393zm-3.068-5.535l-4.672 3.321a.949.949 0 0 1-1.248-.214c-.107-.107-.142-.25-.178-.393l-.321-5.822a10.819 10.819 0 0 1 6.42 3.108zm-10.342-2.929c.392-.071.749-.143 1.141-.214l-.321 5.714c-.036.5-.428.929-.963.929a.846.846 0 0 1-.428-.107l-4.743-3.393a10.875 10.875 0 0 1 5.314-2.929zm-7.026 5.072l4.244 3.785c.392.322.428.929.107 1.322a.71.71 0 0 1-.428.286l-5.528 1.607c-.214-2.429.32-4.893 1.605-7zm-.963 9.678l5.67-.964a.962.962 0 0 1 1 .75c.035.214.035.393-.037.571l-2.175 5.25a11.255 11.255 0 0 1-4.458-5.607zm13.017 7.108c-.82.178-1.64.285-2.496.285-1.248 0-2.461-.214-3.602-.571l2.817-5.107c.285-.322.75-.465 1.141-.25.167.102.312.235.428.392l2.747 4.965c-.322.107-.678.178-1.035.285zm6.955-4.965c-.892 1.429-2.069 2.572-3.424 3.465l-2.247-5.394a.962.962 0 0 1 .5-1.107 1.14 1.14 0 0 1 .499-.107l5.706.965c-.214.785-.57 1.5-1.034 2.178z" fill="#FFF" fill-rule="nonzero"/></g></svg>
