<svg fill="none" height="64" viewBox="0 0 64 64" width="64" xmlns="http://www.w3.org/2000/svg" xmlns:xlink="http://www.w3.org/1999/xlink"><clipPath id="a"><path d="m0 0h64v64h-64z"/></clipPath><clipPath id="b"><path d="m5 5h54v54h-54z"/></clipPath><g clip-path="url(#a)"><rect fill="#fff" height="64" rx="5" width="64"/><g clip-path="url(#b)"><path d="m44.3137 30.2294c.0624.3911.1265.7822.2033 1.1644h3.7779v-1.1644zm.626 2.9092c.0781.2675.1608.5337.2523.7987.2194.1092.4333.2311.64.367h4.7891v-1.1657zm-7.7755.5409c-.1798.0654-.3557.1417-.5282.2249v.0016c.1729-.0835.348-.1611.5282-.2265zm-17.4015 14.5842v1.1644h13.9881v-1.1644zm8.1464 2.9093v1.161h11.5159v-1.161z" fill="#3c6eb4"/><path d="m30.7825 11.8597c-2.0714 0-4.1011.2392-5.3098.7201-3.3285 1.2184-5.8851 4.5457-6.6428 8.5767-.9977 4.7191-.9382 8.4126-1.9288 11.8876.4529-.3452.9546-.621 1.4888-.8184.7737-.3063 2.071-.4598 3.3957-.4598 1.3246 0 2.6789.1539 3.5568.4598 1.9284.7045 3.4497 2.5144 4.0795 4.7604h4.1002c.84-1.5529 2.1221-2.7519 3.6421-3.3066 1.6533-.6556 5.554-.6539 7.4321 0 .2038.0742.4017.1645.5966.2611-1.2918-3.7403-1.1277-7.6574-2.2115-12.7841-.7573-4.031-3.3147-7.3583-6.6428-8.5767-1.3728-.4792-3.4851-.7197-5.5561-.7201z" fill="#ccc"/><path d="m24.1004 26.0039c-.3739.0004-.7323.1572-.9965.4359s-.4126.6565-.4126 1.0503c0 .3939.1484.7717.4126 1.0504.2642.2786.6226.4354.9965.4359.3739-.0003.7324-.1571.9967-.4358s.4128-.6565.4128-1.0505c0-.3938-.1484-.7716-.4126-1.0503s-.623-.4355-.9969-.4359zm14.2552 0c-.3739.0004-.7323.1572-.9965.4359s-.4126.6565-.4126 1.0503c0 .3939.1484.7717.4126 1.0504.2642.2786.6226.4354.9965.4359.1854.0004.3692-.0378.5406-.1124.1715-.0745.3273-.1839.4585-.322.1313-.138.2355-.302.3065-.4825.0711-.1805.1076-.374.1076-.5694s-.0365-.3888-.1076-.5693c-.071-.1805-.1752-.3445-.3065-.4825-.1312-.1381-.287-.2475-.4585-.3221-.1714-.0745-.3552-.1127-.5406-.1123z" fill="#e7e8e9"/><path d="m26.4755 26.3912-5.243 1.4057.1502.5619 5.2439-1.4057zm9.9225 0-.151.5619 5.2427 1.4057.151-.5619zm-9.3976.8471-5.2731 3.0455.2911.5033 5.2722-3.0451zm8.8758 0-.2911.5037 5.2726 3.0451.2911-.5033zm-8.4902 1.0104-3.6311 3.6361c.2472.0312.4826.0705.7075.1144l3.3349-3.3396zm8.1042 0-.4109.4109 4.56 4.5672c.2582-.0169.5219-.0283.7889-.0337zm-7.9279 1.3238-1.6694 2.8941c.1734.0856.3434.1797.5084.2835l1.6651-2.8873zm7.7519 0-.5041.2903 2.2305 3.8677c.0413-.0164.0814-.0358.1236-.051.1308-.0519.2805-.0983.4375-.1418z" fill="#a7a9ac"/><path d="m35.907 26.4481c0 .5661-.1171 1.1266-.3447 1.6496s-.5612.9982-.9818 1.3985c-.4205.4003-.9199.7179-1.4694.9345s-1.1385.3281-1.7334.3281c-.5948.0001-1.1839-.1114-1.7335-.328s-1.0489-.5341-1.4696-.9344c-.4206-.4003-.7542-.8756-.9819-1.3986-.2276-.523-.3447-1.0836-.3446-1.6497 0-.5661.1171-1.1266.3448-1.6496.2276-.5229.5613-.9981.9819-1.3984.4206-.4002.92-.7177 1.4695-.9343.5496-.2166 1.1386-.328 1.7334-.328 1.2012.0001 2.3531.4543 3.2024 1.2626s1.3269 1.9046 1.3269 3.0477z" fill="#fff"/><path d="m33.3108 25.671c-.1519-.3936-.1519-1.1808-.6075-1.1808-.4557 0-.8775-.2953-1.3256-.2953-.4484 0-.869.2953-1.3255.2953-.4556 0-.4556.7872-.6075 1.1812-.1519.3932 1.933 1.6724 1.933 1.6724s2.0849-1.2792 1.9331-1.6728z" fill="#808080"/><path d="m29.2152 36.3411c.1392.3738.2489.7636.3346 1.1648h3.712c.1869-.4105.4042-.8003.6476-1.1652zm18.6372.0004c.2463.3702.4624.7596.6463 1.1644h4.671v-1.1644z" fill="#3c6eb4"/><path d="m21.786 31.7659c-1.3247 0-2.6224.1535-3.3961.4598-2.1288.778-3.7619 2.9017-4.2462 5.4738-.2531 1.1923-.3987 2.2744-.5223 3.2936h16.4894c-.1236-1.0192-.2657-2.1009-.5189-3.2936-.4839-2.5721-2.1207-4.6954-4.2499-5.4734-.8784-.3058-2.2318-.4598-3.5564-.4598z" fill="#ccc"/><path d="m17.5141 40.7919c-.1924.006-.3779.0766-.5295.2012h1.08c-.1573-.129-.3509-.1996-.5505-.2008zm9.1209 0c-.1925.006-.3782.0765-.5299.2012h1.0809c-.1576-.1292-.3515-.1998-.5514-.2008z" fill="#e7e8e9"/><path d="m19.0071 40.9383-.2042.0548h.2194zm6.4007 0-.0148.0548h.2194z" fill="#a7a9ac"/><path d="m22.1695 38.3281c-.7515.002-1.4728.281-2.0116.7782-.5389.4972-.8532 1.1738-.8766 1.8868h5.7721c-.0234-.7123-.3371-1.3883-.875-1.8854-.538-.4971-1.2582-.7766-2.0089-.7796z" fill="#fff"/><path d="m22.1695 39.6385c-.2869 0-.5556.1898-.8472.1898-.2915 0-.2936.5012-.3906.7522-.0338.0878.1131.246.3101.4126h1.8545c.1975-.1666.3409-.3248.3067-.4126-.097-.251-.0953-.7522-.3868-.7522-.2911 0-.5599-.1898-.8467-.1898z" fill="#808080"/><path d="m43.7011 5.61889-23.5144.06918c-.0871.0004-.173.02031-.2513.05828-.0783.03796-.1472.09302-.2014.1611l-14.60954 18.44945c-.0536.0682-.09126.1476-.11024.2323-.01898.0846-.01879.1725.00055.2571l5.29873 22.9344c.0198.0854.0587.1652.1137.2335s.1248.1233.204.1609l21.214 10.1507c.079.0372.1653.0561.2525.0553.0873-.0007.1733-.021.2516-.0595l21.1562-10.2747c.0789-.0384.1481-.0941.2025-.163.0543-.0689.0924-.1492.1114-.2349l5.1667-22.9635c.0189-.0848.0185-.1728-.0011-.2575-.0195-.0847-.0578-.1639-.112-.2318l-14.7146-18.36216c-.0551-.06786-.1248-.12245-.2039-.15969-.0791-.03725-.1659-.05621-.2534-.05546zm-.2771 1.16437 14.3648 17.92124-5.0431 22.4193-20.6487 10.0305-20.7102-9.9065-5.17391-22.3901 14.25851-18.00863z" fill="#892ca0"/><path d="m49.9904 45.389c-.2556-1.7398-.3797-3.6323-.8517-5.8585-.5181-2.7498-2.2668-5.0204-4.5428-5.8514-1.8782-.654-5.7784-.6556-7.4317 0-2.276.831-4.0247 3.1016-4.5428 5.8514-.4716 2.2266-.5961 4.1187-.8517 5.8585" fill="#ccc"/><path d="m36.2272 42.8371c-.1267.0001-.2522.0264-.3693.0774-.117.0511-.2234.1259-.313.2201-.0895.0943-.1605.2062-.2089.3293-.0485.1231-.0733.255-.0732.3883-.0001.1332.0247.2651.0732.3882.0484.1231.1194.235.2089.3293.0896.0942.196.169.313.2201.1171.051.2426.0773.3693.0774.2559-.0002.5012-.1073.682-.2977.1808-.1903.2822-.4484.282-.7173.0002-.269-.1012-.5271-.282-.7174-.1808-.1904-.4261-.2974-.682-.2977zm9.7495 0c-.1267.0001-.2522.0264-.3693.0774-.117.0511-.2234.1259-.3129.2201-.0896.0943-.1606.2062-.209.3293s-.0733.255-.0732.3883c-.0001.1332.0248.2651.0732.3882s.1194.235.209.3293c.0895.0942.1959.169.3129.2201.1171.051.2426.0773.3693.0774.2559-.0002.5012-.1073.682-.2977.1808-.1903.2822-.4484.282-.7173.0002-.269-.1012-.5271-.282-.7174-.1808-.1904-.4261-.2974-.682-.2977z" fill="#e7e8e9"/><path d="m37.8278 43.0126-3.5859.9606.151.562 3.5851-.9606zm6.8327 0-.1511.562 3.586.9606.151-.562zm-6.4969.5873-3.6045 2.0781.2902.5033 3.6041-2.0773zm6.1615 0-.2911.5041 3.6041 2.0773.2911-.5033z" fill="#a7a9ac"/><path d="m44.3006 43.1417c0 .7798-.3263 1.5277-.9072 2.0791-.5808.5514-1.3687.8613-2.1902.8614-.8216 0-1.6095-.3098-2.1905-.8613-.5809-.5514-.9073-1.2993-.9073-2.0792s.3264-1.5278.9073-2.0792c.581-.5515 1.3689-.8613 2.1905-.8613.8215.0001 1.6094.31 2.1902.8614.5809.5515.9072 1.2993.9072 2.0791z" fill="#fff"/><path d="m42.5249 42.611c-.1037-.2683-.1037-.8058-.4155-.8058-.3114 0-.5991-.2008-.9062-.2008-.3067 0-.5948.2012-.9066.2012-.3114 0-.3114.5371-.4156.8058-.1037.2683 1.3222 1.1408 1.3222 1.1408s1.4259-.8725 1.3217-1.1412z" fill="#808080"/><path d="m31.3782 21.7029c-2.7258 0-4.9655 2.1186-4.9655 4.7469s2.2397 4.747 4.9655 4.747c2.7261 0 4.9659-2.1187 4.9659-4.747s-2.2406-4.7469-4.9659-4.7469zm0 .8728c2.2772 0 4.0934 1.7415 4.0934 3.8741 0 2.133-1.8162 3.8737-4.0934 3.8737-2.2769 0-4.0935-1.7407-4.0935-3.8737 0-2.1326 1.8166-3.8741 4.0935-3.8741zm-9.2087 15.3141c-1.7947 0-3.2822 1.3753-3.3307 3.1033h.8728c.0473-1.2319 1.1125-2.2309 2.4579-2.2309 1.3458 0 2.4097.999 2.457 2.2309h.8724c-.0477-1.7276-1.5356-3.1033-3.3294-3.1033zm19.0346 1.8761c-1.9343 0-3.5354 1.5019-3.5354 3.3741 0 1.8732 1.6011 3.3776 3.5354 3.3776 1.9347 0 3.5348-1.5049 3.5348-3.3776 0-1.8722-1.5997-3.3741-3.5348-3.3741zm0 .8728c1.4871 0 2.662 1.1252 2.662 2.5018 0 1.3753-1.1749 2.5046-2.662 2.5046-1.4867 0-2.6621-1.1293-2.6621-2.5051 0-1.3753 1.1754-2.5013 2.6621-2.5013z" fill="#60605b"/><path d="m11.734 40.9931v1.1644h20.4449c.0506-.3784.1067-.7661.1713-1.1644zm10.3587 4.3635v1.161h30.2332v-1.161h-2.3392l.0042.032h-18.2217l.0043-.032z" fill="#3c6eb4"/><path d="m30.7833 11.4239h-.0008c-2.1018 0-4.1471.2295-5.4654.7522-3.4944 1.2838-6.129 4.7355-6.9124 8.8914-.697 3.297-.8818 6.0852-1.2526 8.6097-.1582 1.0791-.3535 2.1072-.6311 3.1121-1.4179 1.1201-2.4363 2.8544-2.8089 4.8305-.2598 1.2289-.4037 2.3372-.529 3.3733h.8767c.1215-.9998.2632-2.0503.5075-3.202l.0034-.0042v-.0076c.4598-2.4397 2.0123-4.4263 3.969-5.1406l.0075-.0042.0034-.0034c.6636-.2632 1.9436-.4278 3.235-.4278 1.2896 0 2.6202.1608 3.4104.435 1.955.7155 3.5062 2.7025 3.9656 5.141v.0076l.0034.0042c.2447 1.1517.386 2.2026.5075 3.202h.8771c-.1253-1.037-.2687-2.1473-.529-3.3775-.5105-2.7026-2.2284-4.9587-4.5289-5.7987h-.0033l-.0034-.0042c-.967-.3358-2.3414-.481-3.6999-.4818-1.3559 0-2.6696.1405-3.5517.4894-.2186.0801-.4303.1772-.6379.2818.1708-.7599.3115-1.5262.4219-2.2971.3776-2.5743.5547-5.3296 1.2378-8.5586l.0042-.0042v-.0068c.7323-3.8981 3.2088-7.09 6.3644-8.2451l.0042-.0034h.0063c1.099-.437 3.1114-.6902 5.149-.6897 2.0347 0 4.1192.2459 5.4042.6931 3.1557 1.1547 5.6321 4.3466 6.3636 8.2447l.0042.0085v.0029c.6826 3.229.864 5.9843 1.2416 8.5586.17 1.1593.3906 2.2823.7087 3.3897-1.0099-.3054-2.3641-.4429-3.7104-.4429-1.447 0-2.8463.1519-3.7825.5223-2.4443.8943-4.2715 3.2906-4.8161 6.1674-.4793 2.2604-.6067 4.1677-.8589 5.8822l.8652.1278c.2595-1.7647.3789-3.6391.8438-5.8316l.0042-.0042v-.003c.4927-2.6177 2.1613-4.757 4.2651-5.5248h.003l.0076-.0043c.7172-.2843 2.0866-.4598 3.4691-.4598 1.3816 0 2.8046.1717 3.6551.4674h.0042c2.0997.7704 3.764 2.9068 4.2567 5.5215v.0072c.4645 2.1921.5873 4.0669.8467 5.8312l.8661-.1274c-.2518-1.715-.3796-3.6223-.8585-5.8827-.4834-2.5553-1.9794-4.7305-4.0204-5.8121-.4236-1.2712-.6835-2.5705-.8864-3.9517-.37-2.5229-.5535-5.3089-1.2492-8.6021-.7821-4.163-3.4184-7.6249-6.9196-8.9066h-.0076c-1.4613-.5105-3.5943-.7442-5.6995-.7446zm-6.5686 5.2578c-.4481-.0024-.8908.0984-1.2937.2948-.4028.1964-.755.483-1.0291.8375l-.2671.3434.6944.5333.2662-.3472c.1822-.2314.4116-.4214.6728-.5574.2613-.1359.5485-.2147.8426-.2311.5484-.0232 1.118.1974 1.5078.5843l.3105.3105.6172-.621-.3105-.3067c-.5368-.5298-1.2582-.8308-2.0124-.8395zm14.0788 0c-.7543.009-1.4756.3103-2.0123.8404l-.3105.3067.6138.621.3109-.3105c.1991-.1938.4353-.3455.6944-.4459.259-.1004.5357-.1475.8134-.1384.5801.0253 1.1644.3278 1.5188.7889l.267.3468.6902-.5333-.267-.3434c-.2734-.3544-.6248-.6409-1.0269-.8373-.4022-.1964-.8442-.2973-1.2918-.295zm-14.1011 3.8454c-.5783.0002-1.1328.2361-1.5416.6558-.4089.4197-.6386.9888-.6387 1.5823 0 .5935.2297 1.1627.6385 1.5825.4089.4198.9634.6557 1.5418.6559.2866.0003.5704-.0574.8353-.1697.2648-.1124.5055-.2773.7083-.4851.2027-.2079.3636-.4548.4733-.7265.1098-.2717.1663-.563.1663-.8571-.0001-.2942-.0566-.5854-.1664-.857-.1098-.2717-.2706-.5185-.4734-.7264-.2027-.2078-.4434-.3726-.7082-.485-.2649-.1123-.5487-.17-.8352-.1697zm14.1193 0c-.5782.0004-1.1326.2363-1.5413.6559-.4088.4197-.6384.9888-.6386 1.5822 0 .5934.2297 1.1626.6384 1.5823.4088.4198.9632.6558 1.5415.6561.5783-.0002 1.1328-.2361 1.5417-.6559.4088-.4198.6385-.989.6385-1.5825-.0001-.5934-.2298-1.1625-.6385-1.5822-.4088-.4196-.9636-.6555-1.5417-.6559zm-6.9335 3.2316c-.3198 0-.5818.0983-.7995.1717-.2181.0738-.3923.124-.5265.124-.2392 0-.4742.1312-.602.2852-.1274.1536-.1877.3122-.2342.4632-.0928.3008-.1379.6067-.1788.713-.0937.2421-.0042.4349.07.5615.0738.1266.1641.2261.2658.3291.2042.205.4624.4104.7231.602.267.1957.5349.3738.734.5037l-.0105.1755c-.0983.0801-.3375.2924-.7341.4265-.2345.0793-.4708.1076-.6758.0553-.1742-.0447-.3476-.1983-.5257-.4308.0114-.0919.0156-.1295.0363-.2809.0367-.265.0899-.5852.1139-.6801l-.8475-.2118c-.0507.2025-.0937.4978-.1317.7716-.0379.2734-.0658.5076-.0658.5076l-.0181.156.0839.1312c.3076.4835.7177.7767 1.1395.8843.4219.108.8311.0426 1.1728-.0726.443-.1506.8041-.3923 1.0033-.5442.1995.1519.5585.3945 1.0002.5442.3417.1156.7467.1806 1.1686.0726s.8324-.4008 1.1395-.8843l.0844-.1307-.0186-.1565s-.0278-.2342-.0658-.5076c-.038-.2742-.0818-.5691-.1316-.7716l-.8471.2118c.0236.0949.0767.4151.1139.6801.0202.1493.0253.1856.0358.2776-.1789.2345-.3501.3894-.5256.4345-.2051.0519-.4409.0236-.6755-.0557-.3965-.1341-.6361-.3464-.734-.4265l-.0076-.1641c.2021-.1308.4759-.3122.7522-.5147.2607-.192.5189-.3978.7235-.6033.1013-.1025.1924-.2021.2658-.3282.0747-.1266.1633-.3194.0696-.5619-.0409-.1055-.0894-.4118-.1823-.713-.0464-.1502-.102-.3097-.2299-.4637-.1278-.1535-.3628-.2843-.6024-.2843-.1337 0-.308-.0506-.5257-.124-.2181-.0734-.4796-.1717-.7998-.1717zm0 .8728c.1286 0 .2995.0498.5189.1236.2016.0684.4552.1435.7441.1574.0097.0148.0359.0633.0625.1498.0468.1518.0945.3839.1603.6096-.0211.0287-.0464.0645-.1017.1202-.1443.1451-.3797.3337-.6214.5109-.3712.273-.6033.4151-.7627.5151-.1582-.0996-.3949-.2405-.7674-.5147-.2418-.1772-.4725-.3662-.6168-.5113-.0557-.0557-.0802-.0915-.1013-.1202.065-.2257.1131-.4573.1595-.6096.0146-.0524.0358-.1027.0629-.1498.2885-.0135.5387-.089.7408-.1574.2185-.0738.394-.1236.5223-.1236zm-13.8975 10.0554c-.5906.0253-1.1432.3139-1.5044.7822l-.2657.3468.6893.5332.2671-.3476c.1035-.1294.233-.2355.3802-.3116.1471-.0761.3087-.1204.474-.1301.156-.0044.3113.0224.4568.0788.1454.0565.2782.1414.3904.2498l.3105.3067.613-.6206-.3105-.3067c-.197-.1945-.4318-.3464-.69-.4464-.2581-.0999-.5341-.1457-.8107-.1345zm9.213 0c-.2762-.0113-.5517.0345-.8094.1345-.2577.0999-.492.2519-.6883.4464l-.3101.3067.613.6202.3109-.3063c.1121-.1084.2448-.1934.3902-.2499s.3006-.0834.4565-.0791c.1655.0095.3272.0539.4744.13.1473.0762.2769.1825.3803.3121l.2629.3476.6935-.5332-.2666-.3468c-.1794-.232-.4072-.4221-.6675-.5571-.2603-.1351-.5469-.2119-.8398-.2251zm19.2391 1.6504h-.0008c-.5514.0065-1.0788.2267-1.4711.6142l-.3105.3063.6138.6202.3097-.3063c.123-.1186.2685-.2113.4279-.2727.1594-.0613.3295-.0901.5002-.0846.3544.0147.7176.2012.9341.4818l.267.3467.6906-.5328-.267-.3468c-.1885-.2443-.428-.4444-.7018-.5865s-.5754-.2227-.8836-.2361c-.0359-.0013-.0718-.0034-.1085-.0034zm-9.6288 0c-.0367 0-.073.0017-.1097.0038-.3087.0134-.6107.0939-.8851.2359s-.5145.3421-.7037.5863l-.2658.3468.6936.5333.2658-.3472c.1124-.1416.2536-.2576.4141-.3407.1606-.083.3369-.1311.5174-.1411.1711-.0055.3417.0233.5016.0847.1598.0614.3059.154.4294.2726l.3105.3067.6139-.6202-.3105-.3067c-.3925-.3875-.92-.608-1.4715-.6142zm-18.7321.961c-.3698.0001-.7245.1506-.986.4183s-.4085.6307-.4087 1.0094c-.0004.1878.0354.3738.1053.5474s.1726.3314.3021.4644c.1296.1329.2834.2384.4528.3104s.3511.1091.5345.1092c.1834-.0001.365-.0372.5344-.1092s.3233-.1775.4528-.3104c.1296-.133.2322-.2908.3022-.4644.0699-.1736.1057-.3596.1053-.5474-.0002-.3787-.1473-.7417-.4088-1.0094s-.6161-.4182-.9859-.4183zm9.0332 0c-.1835-.0004-.3652.0362-.5348.1077s-.3237.1766-.4536.3092-.233.2901-.3034.4636c-.0704.1734-.1066.3593-.1068.5472-.0003.1881.0356.3744.1057.5483.0702.1739.1732.3319.3031.4649.13.133.2843.2384.4542.3102.1698.0717.3518.1084.5356.108.1834-.0001.365-.0372.5344-.1092s.3233-.1775.4528-.3104c.1296-.133.2322-.2908.3021-.4644.07-.1736.1058-.3596.1054-.5474-.0002-.3787-.1473-.7417-.4088-1.0094s-.6161-.4182-.9859-.4183zm9.6833 1.804c-.395.0007-.7736.1617-1.0528.4477-.2792.2861-.4361.6738-.4365 1.0782.0003.4044.1572.7923.4364 1.0784.2791.2862.6578.4472 1.0529.4479.1959.0003.39-.039.5712-.1156.1811-.0766.3457-.189.4844-.3308.1387-.1417.2487-.31.3238-.4953.0752-.1853.1139-.384.114-.5846-.0002-.2006-.0389-.3992-.1141-.5845-.0751-.1852-.1852-.3535-.3239-.4952-.1386-.1417-.3032-.254-.4843-.3306s-.3752-.1159-.5711-.1156zm9.6579 0c-.1959-.0003-.39.039-.5711.1156s-.3457.1889-.4843.3306c-.1387.1417-.2488.31-.3239.4952-.0752.1853-.1139.3839-.1141.5845.0001.2006.0388.3993.114.5846.0751.1853.1851.3536.3238.4953.1387.1418.3033.2542.4844.3308.1812.0766.3753.1159.5712.1156.3952-.0004.7741-.1614 1.0535-.4476s.4364-.6741.4366-1.0787c-.0003-.4045-.1574-.7924-.4368-1.0785-.2793-.286-.6581-.447-1.0533-.4474zm-23.7773.1021c-.2387 0-.4235.0704-.5627.1172-.1393.0464-.2325.0692-.2844.0692-.1983 0-.4037.1165-.5075.2413-.1038.1245-.1464.2447-.1789.3502-.0658.2122-.0966.4071-.1097.4417-.0869.2249-.0042.3966.0549.497.016.0278.0337.0485.0506.0725h1.3331c-.0656-.0433-.1302-.0884-.1936-.135-.151-.1113-.2983-.2282-.3797-.31v-.0043c.0266-.1097.0578-.2413.0768-.3033.0021-.0067.0017-.0008.0042-.0063.1544-.0228.3092-.0536.4118-.0886.14-.0468.237-.0688.2851-.0688.0477 0 .1409.022.281.0692.1025.0346.2586.0654.4126.0882.0021.0055.0013 0 .0034.0063.0194.062.054.1928.0801.3038l-.0033.0038c-.0815.0818-.2278.1987-.3793.3096-.0625.0461-.1258.0911-.1898.135h1.3331c.0169-.0232.0346-.0447.0502-.0721.059-.1004.1422-.2721.0548-.497-.0126-.0342-.0476-.2295-.1139-.4417-.0338-.1281-.0946-.2475-.1784-.3502-.1038-.1248-.305-.2413-.5033-.2413-.0519 0-.146-.0223-.2852-.0692-.1392-.0468-.3232-.1172-.562-.1172zm19.0346 1.9646c-.2489 0-.4429.0743-.5919.1245-.1489.0502-.2518.0759-.3138.0759-.2034 0-.4118.116-.5189.2447-.1064.1278-.1515.254-.1857.3654-.0692.2227-.1038.4315-.1202.4746-.0882.2278-.0025.4007.0578.5037.0607.1038.1308.1772.205.2523.1489.1489.3295.2902.5109.4231.1498.1097.2957.2093.4202.2928-.0823.0654-.1915.1548-.3915.2223-.1434.0485-.2768.0599-.3831.0329-.0776-.0198-.1649-.1101-.2518-.2075.0067-.0536.0084-.057.0181-.1245.0253-.1793.0612-.4016.073-.4489l-.8467-.2118c-.0388.1553-.0654.3519-.0916.5396-.0261.1886-.0438.351-.0438.351l-.0182.1532.0844.132c.2249.3535.5387.5818.8606.664.3228.0823.6269.03.8771-.0544.2288-.0801.4451-.1922.6425-.3328.1511.1063.3742.2417.643.3332.2501.0844.5535.1363.8758.054.3227-.0822.6366-.3105.8619-.664l.0843-.132-.0185-.1532s-.0215-.162-.0477-.3501c-.0257-.1882-.0519-.3852-.0907-.5405l-.8471.2118c.0118.0473.0519.27.0768.4489.0084.0675.0071.0709.0139.1245-.0865.097-.1709.1877-.2481.2075-.1063.027-.2404.0156-.3839-.0329-.194-.0658-.3008-.1535-.383-.2194.1265-.0835.2742-.1839.4273-.2953.1814-.1333.362-.2742.5109-.4235.0792-.0746.148-.1595.2046-.2523.0608-.1034.1426-.2763.0549-.5037-.0169-.0431-.0519-.2519-.1211-.4746-.0338-.1114-.076-.2376-.1818-.3658-.1072-.1283-.3152-.2447-.5185-.2447-.0616 0-.1646-.0253-.3139-.0759-.1489-.0507-.3426-.1241-.5915-.1241zm0 .8725c.0578 0 .1608.0261.3105.0768.1491.0449.3018.0766.4565.0944.0055.0119 0 .0043.0063.0254.0228.0738.0595.2155.0916.3438l-.0148.0148c-.1285.1209-.2651.2329-.4088.3353-.213.1561-.3139.2152-.4413.2958-.1265-.0802-.2278-.1388-.4417-.2953-.144-.1026-.2808-.2148-.4096-.3358-.0093-.0097-.0059-.0102-.0139-.019.0312-.1257.0649-.2667.0873-.3392.0067-.0224.0051-.0139.0105-.0253.1536-.0179.3053-.0496.4531-.0949.1498-.0507.2561-.0768.3139-.0768z" fill="#000"/><path d="m24.1915 20.0926c-.3452.0001-.6869.0699-1.0046.2052-.3176.1353-.6047.3332-.844.582-.3005.3078-.5226.6832-.6476 1.0948-.0917.3001-.1302.6139-.1139.9273.0204.4107.1345.8114.3334 1.1713.199.36.4775.6697.8145.9055.175.1211.3641.2204.5632.2958.6215.2347 1.3101.218 1.9195-.0464.2341-.1014.4518-.237.6459-.4025.228-.1922.4219-.4214.5738-.6779.3197-.5374.4428-1.169.3484-1.7871-.0523-.3453-.1707-.6772-.3489-.9775-.1962-.3294-.4604-.6131-.7749-.8324-.1752-.1209-.3645-.2201-.5637-.2953-.2878-.1081-.5928-.1632-.9002-.1628zm14.1202 0c-.3072.0006-.6118.0562-.8995.1641-.2389.0897-.4632.2145-.6653.3704-.2361.1809-.44.4002-.6032.6489-.3941.5962-.5355 1.3245-.3932 2.025.1026.5091.3498.9778.7121 1.35.1778.182.3806.3377.6024.4623.225.1253.4675.2163.7193.27.2613.0555.5297.0693.7953.0409.5155-.0537 1.0025-.263 1.3964-.5999.2603-.2202.476-.4883.6353-.7897.2514-.4722.3564-1.0086.3016-1.5407-.0395-.3919-.1638-.7705-.3645-1.1095-.2179-.366-.5195-.6751-.88-.902-.2179-.1355-.4546-.2382-.7024-.3046-.2133-.0567-.4336-.0853-.6543-.0852zm-14.1202.8691h.0009c.0889.0002.1778.007.2657.0202.199.0307.3909.0967.5666.1949.1489.0826.2848.1866.4033.3088.161.1649.2885.3595.3755.5729.0802.195.126.4024.1354.613.0101.2143-.0159.4288-.0768.6345-.067.2225-.176.4301-.321.6117-.1427.1772-.318.3254-.5164.4367-.3342.1851-.7207.2534-1.0981.194-.4271-.0664-.8133-.292-1.0809-.6315-.1455-.1812-.2544-.389-.3206-.6117-.0528-.1751-.0792-.3571-.0785-.54.0004-.1829.027-.3647.0789-.54.0671-.2223.1759-.4298.3207-.6113.1421-.1769.3168-.325.5146-.4362.2277-.1266.4812-.1996.7413-.2135.0295-.0017.0595-.0025.0894-.0025zm14.1202 0c.176.0002.351.0273.5189.0805.2168.069.4177.1808.5906.3287.1748.1477.3192.3279.4252.5307.1112.2105.1799.4409.2021.6779.0352.3623-.0351.7269-.2025 1.0501-.1067.2022-.2509.3823-.4248.5307-.1296.1099-.2746.2003-.4303.2683-.2142.0932-.4452.1413-.6788.1413s-.4646-.0481-.6788-.1413c-.2085-.0901-.3971-.2207-.5548-.3843-.1607-.165-.2879-.3595-.3746-.5729-.08-.1949-.1257-.4021-.135-.6126-.0074-.154.0037-.3084.0333-.4598.0457-.2302.1349-.4496.2629-.6463.125-.1902.285-.3549.4716-.4852.1642-.1136.3467-.1979.5396-.2493.1421-.0376.2884-.0566.4354-.0565zm-20.7871 15.9013c-.0157-.0005-.0315-.0004-.0472.0004-.9682.0506-1.7344.875-1.7344 1.8621 0 1.0193.8172 1.866 1.8293 1.866s1.8326-.8467 1.8326-1.866c0-1.0192-.8205-1.8621-1.8326-1.8621zm9.0336 0c-.0159-.0005-.0318-.0004-.0476.0004-.9682.0506-1.7382.875-1.7382 1.8621 0 1.0193.821 1.866 1.8331 1.866 1.0125 0 1.8292-.8467 1.8292-1.866 0-1.0192-.8171-1.8621-1.8292-1.8621zm-8.9859.8732c.529 0 .9598.4308.9598.9893 0 .5586-.4308.9931-.9598.9931s-.9572-.4345-.9572-.9931c0-.5585.4282-.9893.9572-.9893zm9.0332 0c.529 0 .9568.4308.9568.9893 0 .5586-.4278.9931-.9568.9931-.5291 0-.9602-.4345-.9602-.9931 0-.5585.4311-.9893.9602-.9893zm9.6833.9273c-1.0653 0-1.928.8906-1.928 1.9643 0 1.0741.8627 1.9647 1.928 1.9647 1.0656 0 1.9279-.8902 1.9279-1.9647 0-1.0737-.8623-1.9643-1.9279-1.9643zm9.658 0c-1.0653 0-1.928.8906-1.928 1.9643 0 1.0741.8627 1.9647 1.928 1.9647 1.0656 0 1.9279-.8902 1.9279-1.9647 0-1.0737-.8623-1.9643-1.9279-1.9643zm-9.685.8725.0274.0004c.5822 0 1.0547.4784 1.0547 1.0914 0 .6134-.4725 1.0918-1.0547 1.0918s-1.0555-.4784-1.0555-1.0918c0-.594.4429-1.0631 1.0007-1.0914.0091-.0004.0182-.0008.0274-.0004zm9.6575 0 .0279.0004c.5822 0 1.0547.4784 1.0547 1.0914 0 .6134-.4725 1.0918-1.0547 1.0918s-1.0555-.4784-1.0555-1.0918c0-.594.4429-1.0631 1.0006-1.0914.009-.0004.018-.0008.027-.0004z" fill="#892ca0"/><path d="m23.4655 21.0199c-.2844-.0003-.5573.1169-.7586.3258-.2013.2088-.3147.4922-.3151.7879-.0003.1468.0272.2922.081.4279.0539.1356.1329.2589.2327.3628.0997.1039.2182.1862.3486.2424s.2702.085.4114.0849c.1411.0001.2809-.0287.4113-.0849.1305-.0562.2489-.1385.3487-.2424.0997-.1039.1788-.2272.2326-.3628.0538-.1357.0814-.2811.081-.4279-.0004-.2957-.1137-.5791-.315-.7879-.2014-.2089-.4742-.3261-.7586-.3258zm14.113 0c-.2844-.0003-.5573.1169-.7586.3258-.2013.2088-.3147.4922-.3151.7879-.0003.1468.0272.2922.081.4279.0539.1356.1329.2589.2326.3628.0998.1039.2183.1862.3487.2424s.2702.085.4114.0849c.141 0 .2808-.0289.4111-.0852.1303-.0562.2487-.1386.3483-.2424.0997-.1039.1786-.2271.2324-.3627.0538-.1357.0813-.281.081-.4277-.0004-.2955-.1137-.5788-.3148-.7876-.2012-.2088-.4738-.3261-.758-.3261zm-20.4707 16.5923c-.1818.0001-.3562.0752-.4848.2086-.1285.1335-.2007.3144-.2007.5031-.0001.0935.0176.1862.0521.2726s.085.165.1488.2311c.0637.0661.1394.1186.2227.1544.0833.0357.1726.0541.2628.054.0901.0001.1794-.0183.2627-.054.0833-.0358.159-.0883.2227-.1544.0638-.0661.1143-.1447.1488-.2311s.0522-.1791.0522-.2726-.0178-.1861-.0523-.2724c-.0345-.0864-.0851-.1649-.1488-.231-.0638-.0661-.1394-.1185-.2227-.1542-.0833-.0358-.1725-.0541-.2626-.0541zm9.121.1021c-.0902 0-.1794.0184-.2626.0542-.0833.0358-.1589.0883-.2226.1544s-.1143.1446-.1487.231c-.0345.0864-.0522.179-.0521.2725 0 .0935.0177.1861.0522.2725s.0851.1648.1489.2309c.0637.0661.1394.1185.2226.1543.0833.0357.1726.0541.2627.054.0902.0002.1795-.0181.2629-.0538.0833-.0357.1591-.088.2229-.1542.0639-.0661.1145-.1446.1491-.231.0345-.0864.0523-.1791.0523-.2727.0001-.0936-.0177-.1864-.0522-.2729-.0346-.0865-.0853-.1651-.1492-.2312-.0638-.0662-.1397-.1186-.2231-.1543-.0835-.0357-.1729-.0539-.2631-.0537zm9.5639 1.7238c-.1943-.0001-.3807.0797-.5184.222-.1376.1423-.2152.3354-.2157.5369-.0002.1002.0186.1993.0554.2919s.0909.1767.1591.2475c.0681.0709.1491.1271.2383.1654s.1847.058.2813.058c.0965 0 .1921-.0197.2812-.058.0892-.0383.1702-.0945.2384-.1654.0682-.0708.1222-.1549.159-.2475s.0556-.1917.0554-.2919c-.0005-.2015-.0781-.3946-.2157-.5369s-.324-.2221-.5183-.222zm9.8073.0979c-.0966-.0001-.1922.0196-.2815.058-.0892.0384-.1702.0947-.2384.1656-.0682.071-.1222.1552-.159.2478-.0367.0927-.0555.192-.0552.2922.0005.2016.078.3948.2156.5372.1377.1423.3241.2222.5185.2221.1944.0001.3808-.0798.5184-.2221.1377-.1424.2152-.3356.2157-.5372.0003-.1002-.0185-.1995-.0552-.2922-.0368-.0926-.0908-.1768-.159-.2478-.0682-.0709-.1492-.1272-.2385-.1656-.0892-.0384-.1848-.0581-.2814-.058z" fill="#fff"/></g></g></svg>