<svg fill="none" height="64" viewBox="0 0 64 64" width="64" xmlns="http://www.w3.org/2000/svg" xmlns:xlink="http://www.w3.org/1999/xlink"><linearGradient id="a" gradientUnits="userSpaceOnUse" x1="31.9997" x2="31.9997" y1="67.1401" y2="22.9353"><stop offset="0" stop-color="#fcee1f"/><stop offset="1" stop-color="#f15b2a"/></linearGradient><clipPath id="b"><path d="m0 0h64v64h-64z"/></clipPath><g clip-path="url(#b)"><path d="m0 0h64v64h-64z" fill="#fff"/><path d="m54.1875 29.2266c-.0781-.8203-.2344-1.7578-.4688-2.8125-.2343-1.0547-.7031-2.1485-1.2499-3.3594-.586-1.1719-1.3282-2.4219-2.3047-3.5547-.3907-.4688-.8203-.8984-1.25-1.3672.7031-2.6953-.8204-5.0781-.8204-5.0781-2.6171-.1563-4.2578.8203-4.8437 1.25-.0781-.0391-.2344-.0781-.3125-.1172-.4297-.1563-.8984-.3516-1.3672-.5078-.4687-.1172-.9375-.3125-1.4062-.3906-.4688-.1172-.9766-.2344-1.5235-.3125-.0781 0-.1562-.0391-.2734-.0391-1.0938-3.59375-4.375-5.15625-4.375-5.15625-3.75 2.42185-4.4531 5.62495-4.4531 5.62495s0 .0782-.0391.1563c-.2344.0391-.3906.1172-.5859.1563-.2735.0781-.5469.1562-.8203.3124l-.8204.3516c-.5468.2734-1.0937.5078-1.6406.8203-.5078.3125-1.0156.586-1.5234.9375-.0782-.039-.1172-.0781-.1172-.0781-5.0391-1.9531-9.4922.3906-9.4922.3906-.3906 5.3907 2.0313 8.711 2.5 9.336-.1172.3515-.2344.664-.3516.9765-.3906 1.211-.664 2.461-.8203 3.75-.039.1563-.039.3906-.0781.5469-4.6484 2.3047-6.01562 7.0312-6.01562 7.0312 3.86722 4.4532 8.39842 4.7266 8.39842 4.7266.5469 1.0156 1.25 2.0313 1.9922 2.9297.3125.3906.6641.7422.9766 1.1328-1.4063 4.0234.2343 7.4219.2343 7.4219 4.336.1562 7.1875-1.875 7.7735-2.3828.4297.1172.8594.2734 1.289.3906 1.3282.3516 2.6953.5469 4.0235.5859h1.7578c2.0312 2.9297 5.625 3.3204 5.625 3.3204 2.539-2.6954 2.6953-5.3125 2.6953-5.9375v-.2344c.5078-.3907 1.0156-.7813 1.5625-1.211 1.0156-.8984 1.875-1.9922 2.6563-3.0859.0781-.0781.1171-.2344.2343-.3125 2.8907.1563 4.8828-1.7969 4.8828-1.7969-.4687-3.0078-2.1875-4.4531-2.539-4.7265l-.0391-.0391-.0391-.0391-.039-.039c0-.1563.039-.3516.039-.5469.0391-.3516.0391-.6641.0391-.9766v-1.289c0-.0782 0-.1563-.0391-.2735l-.039-.2734-.0391-.2734c-.039-.3516-.1172-.6641-.1562-.9766-.3125-1.2891-.8203-2.5391-1.4453-3.5937-.7032-1.1329-1.5235-2.0704-2.461-2.9297-.9375-.8203-1.9922-1.5235-3.0859-1.9922-1.1328-.5078-2.2266-.8203-3.3984-.9375-.5469-.0781-1.1719-.0781-1.7188-.0781h-.8984c-.3125.039-.586.0781-.8594.1171-1.1719.2344-2.2266.6641-3.1641 1.211-.9375.5468-1.7578 1.289-2.4609 2.1094-.7031.8203-1.2109 1.6796-1.5625 2.6171-.3516.8985-.5469 1.875-.5859 2.8125v1.0157c0 .1172-.0001.2343.039.3515.0391.4688.1172.8985.2734 1.3282.2735.8593.6641 1.6406 1.1719 2.3046.5078.6641 1.0938 1.211 1.7188 1.6407.664.4297 1.289.7422 1.9922.9375.7031.1953 1.3281.3125 1.9531.2734h.8984c.0782 0 .1563-.0391.2344-.0391s.1172-.039.2344-.039c.1172-.0391.3125-.0781.4297-.1172.2734-.0781.5078-.2344.7812-.3125.2734-.1172.4688-.2735.6641-.3906.039-.0391.1172-.0782.1562-.1172.2344-.1563.2735-.4688.0782-.7032-.1563-.1562-.4297-.2343-.6641-.1171-.0391.039-.0781.039-.1563.0781-.1562.0781-.3906.1562-.5468.2344-.2344.039-.4297.1171-.6641.1562-.1172 0-.2344.0391-.3516.0391h-.7031-.2734c-.0391 0-.1172 0-.1563-.0391-.4687-.0781-.9765-.2344-1.4453-.4297-.4687-.2343-.9375-.5078-1.3281-.8984-.4297-.3906-.7813-.8203-1.0938-1.3281-.3125-.5079-.4687-1.0938-.5468-1.6407-.0391-.3125-.0782-.5859-.0391-.8984v-.2734-.1953c0-.1563.0391-.3125.0781-.4688.2344-1.2891.8594-2.5391 1.836-3.4766.2734-.2734.5078-.4687.8203-.664.3125-.2344.5859-.3906.8984-.5078s.6641-.2735.9766-.3516c.3515-.0781.7031-.1563 1.0156-.1563.1563 0 .3516-.039.5078-.039h.3125.1563c.3906.0391.7812.0781 1.1328.1562.7422.1563 1.4453.4297 2.1484.8203 1.3672.7813 2.5391 1.9532 3.2422 3.3594.3516.7031.5859 1.4453.7422 2.2657.0391.2343.039.3906.0781.5859v1.0547c0 .2343-.0391.4297-.0391.664-.039.2344-.039.4297-.0781.6641-.039.2344-.0781.4297-.1172.6641-.0781.4296-.2734.8203-.3906 1.25-.3125.8203-.7422 1.6015-1.25 2.2656-1.0156 1.4062-2.4609 2.5781-4.0234 3.3203-.8203.3516-1.6407.6641-2.5.7812-.4297.0782-.8594.1172-1.2891.1172h-.625-.0391c-.2343 0-.4687 0-.7031-.039-.9375-.0781-1.8359-.2735-2.7343-.5078-.8985-.2735-1.7579-.586-2.5782-1.0157-1.6406-.8593-3.0859-2.1093-4.2578-3.5156-.5469-.7422-1.0937-1.5234-1.5234-2.3047-.4297-.7812-.7422-1.6797-.9766-2.539-.2734-.8594-.3906-1.7578-.4297-2.6563v-1.3672c0-.4297.0391-.8984.1172-1.3672.0391-.4687.1172-.8984.2344-1.3672.0781-.4687.2344-.8984.3516-1.3671.2734-.8985.5468-1.7578.9374-2.5782.7813-1.6406 1.7579-3.0859 2.9297-4.2578.3125-.3125.586-.5468.9375-.8203.1172-.1172.4297-.3906.7813-.5859.3515-.1953.7031-.4297 1.0937-.586.1563-.0781.3516-.1562.5469-.2734.0781-.0391.1563-.0781.3125-.1172.0781-.039.1563-.0781.3125-.1172.3906-.1562.7813-.3125 1.1719-.4297.0781-.039.2344-.039.3125-.0781.0781-.039.2344-.0391.3125-.0781.2344-.0391.3906-.0781.5859-.1563.0782-.039.2344-.039.3125-.0781.0781 0 .2344-.039.3125-.039.0782 0 .2344-.0391.3125-.0391l.1563-.0391.1562-.039c.0781 0 .2344-.0391.3125-.0391.1172 0 .2344-.0391.3516-.0391.0781 0 .2734-.039.3515-.039.0782 0 .1172 0 .2344-.0391h.2735c.1172 0 .2343 0 .3515-.0391h.1563 1.6015c.7813.0391 1.5625.1172 2.2657.2735 1.4453.2734 2.8906.7422 4.1406 1.3672 1.25.5859 2.4219 1.3672 3.3594 2.1875.039.039.1172.0781.1562.1562.0391.0391.1172.0781.1563.1563.1171.0781.2343.2343.3515.3125.1172.0781.2344.2343.3516.3125.0781.1172.2344.2343.3125.3515.4297.4297.8203.8985 1.1719 1.3282.7031.8984 1.25 1.7968 1.6796 2.6562.0391.0391.0391.0781.0782.1563.039.039.039.0781.0781.1562s.0781.2344.1563.3125c.039.0781.0781.2344.1171.3125.0391.0781.0782.2344.1172.3125.1563.3906.3125.7813.4297 1.1719.2344.5859.3516 1.1328.4688 1.5625.039.1562.2343.3125.3906.3125.2344 0 .3515-.1563.3515-.3906-.1171-.6641-.1171-1.211-.1562-1.875z" fill="url(#a)"/></g></svg>