<svg fill="none" height="64" viewBox="0 0 64 64" width="64" xmlns="http://www.w3.org/2000/svg" xmlns:xlink="http://www.w3.org/1999/xlink"><clipPath id="a"><path d="m0 0h64v64h-64z"/></clipPath><g clip-path="url(#a)"><path d="m0 0h64v64h-64z" fill="#fff"/><g fill="#3bbced"><path d="m28.4844 18.5938h-.7344v3.8085h.7344zm3.1601 0h-.7343v3.8085h.7343zm4.3203-7.2657-.7539-1.3047-12.5703 7.2657.7539 1.3047z"/><path d="m35.8906 11.3281.7539-1.3047 12.5703 7.2657-.7539 1.3047z"/><path d="m51.4375 18.6133v-1.5078h-34.4375v1.5078z"/><path d="m37.8008 39.9102v-22.3477h1.5078v23.4297c-.4024-.457-.918-.7891-1.5078-1.082zm-2.5703-.3868v-31.5234h1.5078v31.707c-.4258-.2031-1.4531-.1836-1.5078-.1836zm-14.2774 3.1446c-1.8359-1.3594-3.0508-3.5313-3.0508-5.9961 0-1.3047.3477-2.5938.9922-3.7149h12.8633c.6602 1.1211.9922 2.4102.9922 3.7149 0 1.1406-.1484 2.207-.6055 3.164-.9726-.9375-2.4062-1.3437-3.8593-1.3437-2.5743 0-4.7774 1.6015-5.3477 3.9922-.2031-.0196-.332-.0352-.5313-.0352-.5.0156-.9765.0899-1.4531.2188z"/><path d="m27.2734 24.0937h-3.8945v3.918h3.8945zm-4.3945 0h-3.8945v3.918h3.8945zm0 4.3594h-3.8945v3.918h3.8945zm4.3945 0h-3.8945v3.918h3.8945zm4.3711 0h-3.8945v3.918h3.8945zm0-6.457h-3.8945v3.918h3.8945z"/><path d="m23.5781 43.2578c.5313-2.2617 2.5742-3.9531 5-3.9531 1.5625 0 2.9571.6992 3.9141 1.8047.8281-.5703 1.8203-.9024 2.9023-.9024 2.8282 0 5.125 2.2969 5.125 5.1328 0 .5899-.0898 1.1407-.2734 1.6719.625.8477 1.0117 1.9141 1.0117 3.0547 0 2.832-2.2969 5.1328-5.1289 5.1328-1.25 0-2.3906-.4414-3.2695-1.1758-.9375 1.3047-2.461 2.1719-4.1914 2.1719-1.9844 0-3.711-1.1406-4.5742-2.7969-.3477.0743-.6993.1094-1.0665.1094-2.8281 0-5.1445-2.3008-5.1445-5.1328s2.2969-5.1328 5.1445-5.1328c.1836-.0195.3672-.0195.5508.0156z"/></g></g></svg>