<svg fill="none" height="64" viewBox="0 0 64 64" width="64" xmlns="http://www.w3.org/2000/svg" xmlns:xlink="http://www.w3.org/1999/xlink"><clipPath id="a"><path d="m0 0h64v64h-64z"/></clipPath><g clip-path="url(#a)"><path d="m0 0h64v64h-64z" fill="#fff"/><g fill="#2453ff"><path d="m56.6094 25.5156-.5469-3.2031c-.1563-1.0156-.5859-1.875-.8984-1.875s-.586.8594-.586 1.9141v.8593c0 1.0157-.8594 1.9141-1.914 1.9141h-.8594c-.0781 0-.1172 0-.1563 0v2.3047h.1563 3.1641c1.0937-.0781 1.7968-.8985 1.6406-1.9141z"/><path d="m49.0313 22.7813h-5.0782c-.039 0-.0781 0-.1172 0h-5.2734c-.0781 0-.1172 0-.1562.039v-.5078c0-1.0156-.2735-1.9141-.586-1.9141s-.7031.8594-.8984 1.875l-.5469 3.2032c-.1562 1.0156.5469 1.875 1.6016 1.875h3.164c.3125 0 .625-.0391.8985-.1172-.1172.5468-.5469.9375-1.1328.9375h-4.4532c-.7031 0-1.25-.6641-1.1328-1.3672l.4688-2.6953c.1172-.7031-.4297-1.3672-1.1328-1.3672h-22.0704c-.4687 0-.8593.2734-1.0546.7031l-4.14067 6.3672c-.07813.1172-.07813.2344.03906.3516l.78125.9375c.11719.1172.27344.1172.39063.039l2.81253-2.2265v13.4765c0 .6641.5078 1.1719 1.1718 1.1719h6.25c.6641 0 1.1719-.5078 1.1719-1.1719v-4.6875c0-.664.5078-1.1719 1.1719-1.1719h15.5859c.6641 0 1.1719.5079 1.1719 1.1719v4.6875c0 .6641.5078 1.1719 1.1719 1.1719h6.25c.664 0 1.1719-.5078 1.1719-1.1719v-5.039h-3.3204c-1.0156 0-1.914-.8594-1.914-1.9141v-3.2422c0-.625.3125-1.1719.7422-1.5234v3.8672c0 1.0156.8593 1.914 1.914 1.914h5.1172c1.0156 0 1.9141-.8593 1.9141-1.914v-9.8047c-.0391-1.0938-.8985-1.9531-1.9531-1.9531z"/></g></g></svg>