<svg fill="none" height="64" viewBox="0 0 64 64" width="64" xmlns="http://www.w3.org/2000/svg" xmlns:xlink="http://www.w3.org/1999/xlink"><clipPath id="a"><path d="m0 0h64v64h-64z"/></clipPath><clipPath id="b"><path d="m5 12h54v40.5352h-54z"/></clipPath><g clip-path="url(#a)"><path d="m0 0h64v64h-64z" fill="#fff"/><g clip-path="url(#b)"><path clip-rule="evenodd" d="m46.1548 43.4165h-4.8735c-.4102.5859-.8496 1.1719-1.3184 1.7578-.4878.5977-1.0151 1.1953-1.5732 1.793-.5581.5976-1.0723 1.0986-1.6568 1.6523-.4746.4541-.9682.9024-1.4809 1.3448l.4087-.0748c.2812-.0571.5669-.123.8525-.1977s.5713-.1494.8525-.2373c.2813-.0879.5537-.1802.835-.2813.2812-.101.5493-.2153.8174-.3339.268-.1187.5537-.2417.813-.3692.2592-.1274.5273-.2637.7866-.4043s.5141-.2812.7602-.4394.4966-.3033.7295-.4395.4659-.3428.6856-.5141c.2197-.1714.4394-.3472.6723-.5274.233-.1802.4395-.3647.646-.5581.2066-.1934.4395-.3911.6241-.5933.1845-.2021.312-.3208.4394-.479.1275-.1582.2988-.3252.4395-.4921.1406-.167.2285-.2681.3384-.4043l.1625-.2022zm-34.1235-6.4775-2.33793-9.3428h3.35743l1.0723 5.7129h.0703l1.1909-5.7129h3.2607l1.2437 5.647h.0527l1.0195-5.647h3.375l-2.3334 9.3428h-3.6255l-1.3184-5.0142h-.0967l-1.3183 5.0142zm14.9809 0-2.3335-9.3428h3.3574l1.0679 5.7129h.0659l1.191-5.7129h3.2607l1.2612 5.647h.0747l1.0196-5.647h3.3442l-2.3335 9.3428h-3.6255l-1.3183-5.0142h-.0967l-1.3184 5.0142zm14.9854 0-2.3335-9.3428h3.3574l1.0679 5.7129h.0703l1.1953-5.7129h3.2607l1.2393 5.647h.0703l1.0239-5.647h3.3575l-2.3379 9.3428h-3.6255l-1.3184-5.0142h-.0967l-1.3183 5.0142zm-32.83158-15.1875h5.50198c.167-.2725.3384-.5494.5185-.8174.1802-.2681.3604-.5274.5537-.7866.1934-.2593.3868-.5098.5889-.7603.2022-.2505.4175-.4966.6372-.7339s.4395-.4878.6812-.7163c.2241-.2329.4394-.4394.6899-.668.2505-.2285.479-.4394.7295-.6328l.7647-.5932c.2636-.1934.5273-.378.7866-.5493.2593-.1714.5449-.3604.8218-.5274.2768-.167.5625-.3296.8789-.4878s.5756-.3032.8789-.4394c.3032-.1363.602-.2813.9008-.4087.3121-.1363.6241-.2593.9317-.3692.3076-.1098.624-.2636.958-.3823.334-.1186.6416-.189.9624-.2725s.6416-.1538.9756-.2241c.3647-.0483.6723-.1054 1.0019-.1582.3296-.0527.6812-.0879 1.002-.123.3208-.0352.6855-.0572 1.0283-.0747.3428-.0176.6987-.0264 1.0415-.0264.6856 0 1.3799.0352 2.061.1011.3428.0351.6812.0747 1.0108.123.3296.0484.6636.1099.9975.1758.334.0659.646.1362.9668.2197s.6373.167.9537.2637.6284.2065.9316.3164.6108.2329.9141.3604l.0922.0439c.2901.1231.5757.2549.879.3955.3032.1406.5888.2944.8789.4395.2856.1582.5713.3208.8481.4878.2813.1713.5581.3471.8306.5229.2724.1758.5229.3604.7778.5493.2549.189.5142.3911.7646.5933.2505.2021.4966.4175.7383.6372s.4834.4394.7119.6767c.2242.2242.4395.4395.6636.69s.4395.479.6328.7295c.1934.2505.3999.501.5933.7646.1934.2637.3779.5274.5581.7954.1802.2725.356.545.5186.813h5.5107c1.1045.0012 2.1635.4405 2.9445 1.2215.7811.781 1.2203 1.84 1.2215 2.9445v12.7002c-.0041 1.1014-.4432 2.1565-1.2217 2.9356-.7769.779-1.8309 1.2184-2.9311 1.2217h-5.5108c-.167.2768-.3383.5493-.5185.8217-.1802.2725-.3604.5274-.5537.7867-.1934.2592-.3867.5097-.5889.7558-.2109.2549-.4394.501-.6372.7383-.2197.2417-.4395.479-.668.7031-.2226.2285-.4511.4483-.6855.6592-.2373.2153-.479.4395-.7295.6328-.2505.1934-.5054.3999-.7647.5933-.2592.1933-.5273.3779-.7954.5581-.268.1802-.5405.3559-.8173.5229-.2769.167-.5669.3296-.879.4878-.312.1582-.58.3077-.8789.4395-.2988.1318-.602.2812-.8789.4131-.2768.1318-.6196.2549-.936.3735-.3164.1187-.6328.2197-.9536.3208s-.6416.189-.958.2725-.6504.1538-.9844.2241-.6636.1274-.9932.1758c-.3296.0483-.6679.0879-1.0107.123-.6856.0659-1.3755.1011-2.0698.1011-.3428 0-.69 0-1.0371-.0264-.3472-.0263-.6812-.0395-1.024-.0747-.3427-.0351-.6811-.0747-1.0107-.123-.3296-.0484-.6592-.1099-.9976-.1758-.3383-.0659-.6811-.0352-.9931-.1055s-.6372-.1714-.9536-.268c-.3165-.0967-.6241-.2022-.9273-.3121-.3032-.1098-.6196-.2373-.9228-.3691l-.0879-.0395c-.2901-.1231-.5801-.2549-.8789-.3999-.2989-.1451-.5801-.2857-.8789-.4395-.2989-.1538-.5713-.3164-.8482-.4878-.2768-.1714-.5713-.3516-.8437-.5317-.2725-.1802-.5274-.3604-.7867-.5494-.2592-.1889-.5097-.3867-.7602-.5932-.2505-.2066-.4966-.4395-.7383-.6416-.2417-.2022-.4878-.4395-.7119-.6724-.2285-.2241-.4395-.4394-.6636-.6899s-.4394-.479-.6328-.7295-.3999-.5054-.5933-.7647c-.1933-.2592-.3779-.5273-.5537-.7954-.1758-.268-.3471-.5537-.5229-.8305h-5.50198c-1.10763-.0035-2.16857-.4466-2.94972-1.2319-.78116-.7852-1.21863-1.8485-1.21629-2.9561v-12.7002c.00116-1.1046.44045-2.1635 1.22148-2.9446.78103-.781 1.84-1.2203 2.94453-1.2214zm19.59958 28.2041c-.5141-.4395-1.0063-.8789-1.4809-1.3448-.586-.5478-1.1367-1.0971-1.6524-1.6479-.5581-.5977-1.0854-1.1953-1.5732-1.793-.4878-.5976-.9185-1.1645-1.3184-1.7578h-4.8691l.1582.2022.3428.4043c.2856.3295.5888.6547.8789.9668.2021.2021.4087.3999.6196.5888.2109.189.4395.3823.646.5581s.4395.356.6724.5274.4658.334.7031.4965c.2373.1626.479.3121.7339.4659s.4966.2944.747.4394c.2505.145.5274.2813.7955.4043.268.1231.5361.2505.8129.3692l.0572.0351c.268.1099.5317.2153.7998.312.268.0967.5405.189.8218.2769.2724.0879.5537.167.8349.2373.2813.0703.5713.1362.857.189l.3779.0703zm-10.916-28.8369h5.168c.4072-.586.8467-1.1646 1.3183-1.7359.4717-.5713.9844-1.1689 1.5381-1.793.5054-.5537 1.0459-1.1118 1.6128-1.6743.4658-.4394.9536-.9228 1.4546-1.3842l-.2109.0395-.3604.0659c-.2812.0571-.5713.1231-.8789.1978s-.5713.1538-.8481.2373c-.2769.0835-.5581.1845-.8394.2856-.2812.1011-.5493.211-.8174.3296-.268.1187-.5537.2461-.8173.3735-.2637.1275-.5274.2593-.7867.3999-.2592.1407-.5141.2857-.7646.4395s-.4878.3032-.7207.4395c-.2329.1362-.479.3252-.7075.4965-.2286.1714-.4395.3428-.6724.523s-.4395.3647-.646.5625c-.2065.1977-.4394.3867-.624.5932-.1538.1539-.3076.3121-.4395.4703-.1318.1582-.2988.3252-.4394.4878l-.3428.4086-.167.211zm17.2222-6.5699c.5054.4395.9932.9185 1.4546 1.3799.5669.5537 1.0986 1.1074 1.604 1.6611.5054.5538 1.0591 1.1954 1.5381 1.793.479.5977.8789 1.1558 1.3183 1.7359h5.1548l-.1626-.2022c-.1098-.1362-.2241-.2725-.3384-.4043-.1142-.1318-.29-.3252-.4394-.4878s-.2988-.3164-.4658-.479-.4395-.4087-.6241-.5976c-.1845-.189-.4394-.3824-.646-.5582-.2065-.1757-.4394-.3559-.6723-.5273s-.4658-.334-.7031-.4966-.479-.312-.7295-.4614-.501-.2944-.7559-.4395c-.2549-.145-.5186-.2768-.7822-.3999-.2637-.123-.5449-.2417-.8218-.3647l-.0571-.0352c-.2681-.1098-.5362-.2109-.7998-.312-.2637-.101-.545-.1889-.8218-.2768-.2769-.0835-.5537-.1626-.835-.2373-.2812-.0747-.5713-.1319-.8789-.189l-.3647-.0703-.189-.0308zm-1.9468 1.3272v5.2427h5.023c-.3121-.3956-.6372-.7911-.98-1.1866-.3985-.4658-.8218-.9316-1.27-1.3974-.4483-.4659-.9214-.9405-1.4195-1.4239-.4394-.4087-.8789-.8217-1.3183-1.2348zm0 27.5405v5.3394c.4922-.4131.9697-.8306 1.4326-1.2525.5215-.4805 1.021-.9595 1.4986-1.437.4702-.479.9184-.9536 1.3403-1.4326.3603-.4043.7031-.8086 1.0283-1.2173zm-2.2851 5.3394v-5.3394h-5.2823c.3252.4087.6636.8174 1.024 1.2217.4394.4746.8789.9492 1.3183 1.4238.4395.4746.9756.958 1.5029 1.4414.4395.4175.9405.835 1.4371 1.2525zm0-27.6372v-5.2427c-.4615.4131-.9053.8218-1.3184 1.2304-.501.4805-.9756.9566-1.4238 1.4283-.4395.4658-.8789.9316-1.2701 1.3974-.3427.3955-.6679.791-.9755 1.1866zm-21.67388 2.4873h45.66798c.6123.0023 1.1989.2466 1.6319.6795.433.433.6773 1.0196.6796 1.632v12.7002c-.0023.6123-.2466 1.1989-.6796 1.6319s-1.0196.6773-1.6319.6796h-45.66798c-.61234-.0023-1.19894-.2466-1.63193-.6796-.433-.433-.67727-1.0196-.67959-1.6319v-12.7002c.00232-.6124.24659-1.199.67959-1.632.43299-.4329 1.01959-.6772 1.63193-.6795z" fill="#226bc6" fill-rule="evenodd"/></g></g></svg>
