<svg height="64" viewBox="0 0 64 64" width="64" xmlns="http://www.w3.org/2000/svg"><g fill="none" fill-rule="evenodd"><rect fill="#d24726" height="64" rx="5" width="64"/><g fill="#fff"><path d="m47.6120913 31.3310305c7.4217372 0 13.4382439 6.0165067 13.4382439 13.4382438s-6.0165067 13.4382438-13.4382439 13.4382438c-7.4217371 0-13.4382438-6.0165067-13.4382438-13.4382438s6.0165067-13.4382438 13.4382438-13.4382438zm-4.5919121 10.8349586-2.0014261 1.885183 3.919049 3.9782527-3.919049 3.9260956 2.0014261 1.9373402 5.8366718-6.0664641zm9.2126829-6.0014235-5.7790702 5.5362433 5.7790702 6.3286159 1.8937844-2.1143324-3.6174673-3.7491033 4.0536387-3.6779519z"/><path d="m32.3023409 39.4435698h-21.9902578v-25.0026113h41.1527168v14.4541244l.8124457.2707222.6836705.3398613 1.0258909.3930947.8557186.3469511.597662.4370989.21714-17.8769485v-1.0544234l-.21714-.5202626-.597662-.4437896-.5927736-.5798689h-46.53444762l-.72009913.2934775-.52263455.2863914-.52290585.9640522v30.4145499l.52290585.8655218.52263455.4176379.72009913.2635032h20.00353802v5.4588356.659254l-.6020596.8475461-.5167333.318429-.9018595.5311274h-4.6898516l-1.2936366.2311311-.9273872.3299912-.9615239.5668481-.5293472.6780508-.3957043.9209588v1.0618207h18.2772389l-1.0041306-1.0618207-.7697305-1.2716228-.5956002-1.2242261-.5061759-1.0806875-.3945416-1.5068001-.366084-1.4666405-.2147267-2.0258381v-1.4136681l.2147267-1.23383.366084-1.7485143z"/></g></g></svg>
