<svg height="64" viewBox="0 0 64 64" width="64" xmlns="http://www.w3.org/2000/svg"><g fill="none" fill-rule="evenodd"><rect fill="#288bf3" height="64" rx="5" width="64"/><g fill="#fff"><path d="m6.1067773 11.2122599h3.73464097l11.69964603 38.2445791 11.7203749-38.2445791h3.7453423l-12.5493594 40.6975927-1.1309007 1.0846025-1.769742.4660144-1.9898483-.4660144-1.1219835-1.0846025z"/><path d="m41.6471821 53.5103087h-3.6430819v-11.5806357l.5349164-1.5980167.685079-1.5180895.8199872-1.2212965 1.161671-1.1182088 1.1008817-.7850096.9195998-.5770648 1.0351137-.4717345 1.315981-.4279927h1.4343537 1.2094506l1.5012169.1812541 1.2850081.2467386.9588803.4717345.9825541.5770648.842425.609751.8205149.772327.9160867.9849531.6069355 1.0026724.6777183 1.2729009.3606229 1.3063841.209938.9053449v10.9669234h-3.5918163v-10.4607553l-.290467-1.1198804-.551958-1.0531997-.6424823-.9475214-.7972622-.8701965-1.0794126-.6387976-1.1170215-.3638748-1.0914808-.2534247h-1.2094506l-1.1094711.2534247-1.0363461.3638748-.9974199.6387976-.6422113.7006802-.7549673.8802398-.6108082 1.2899976-.2132777.6137123z" transform="matrix(0 -1 1 0 3.832284 91.554852)"/><path d="m41.6471821 30.5103087h-3.6430819v-11.5806357l.5349164-1.5980167.685079-1.5180895.8199872-1.2212965 1.161671-1.1182088 1.1008817-.7850096.9195998-.5770648 1.0351137-.4717345 1.315981-.4279927h1.4343537 1.2094506l1.5012169.1812541 1.2850081.2467386.9588803.4717345.9825541.5770648.842425.609751.8205149.772327.9160867.9849531.6069355 1.0026724.6777183 1.2729009.3606229 1.3063841.209938.9053449v10.9669234h-3.5918163v-10.4607553l-.290467-1.1198804-.551958-1.0531997-.6424823-.9475214-.7972622-.8701965-1.0794126-.6387976-1.1170215-.3638748-1.0914808-.2534247h-1.2094506l-1.1094711.2534247-1.0363461.3638748-.9974199.6387976-.6422113.7006802-.7549673.8802398-.6108082 1.2899976-.2132777.6137123z"/></g></g></svg>
